<svg xmlns="http://www.w3.org/2000/svg" xmlns:xlink="http://www.w3.org/1999/xlink" width="536.01" height="360.315"><defs><linearGradient id="c" x1=".54" y1=".463" x2="-1.15" y2="1.493" gradientUnits="objectBoundingBox"><stop offset="0" stop-color="#e0d4cd"/><stop offset=".95" stop-color="#010101"/><stop offset="1" stop-color="#010101"/></linearGradient><linearGradient id="a" x1=".5" y1=".91" x2=".5" y2="-.438" gradientUnits="objectBoundingBox"><stop offset="0" stop-color="#010101" stop-opacity="0"/><stop offset=".95" stop-color="#010101"/></linearGradient><linearGradient id="d" x1=".42" y1="-.723" x2=".511" y2=".766" gradientUnits="objectBoundingBox"><stop offset="0" stop-color="#fff" stop-opacity="0"/><stop offset=".95" stop-color="#fff"/></linearGradient><linearGradient id="e" x1=".504" y1=".162" x2=".485" y2="3.249" xlink:href="#a"/><linearGradient id="b" x1=".003" y1=".5" x2="1.002" y2=".5" gradientUnits="objectBoundingBox"><stop offset="0" stop-color="#e4c5d5"/><stop offset=".42" stop-color="#e9d3cf"/><stop offset="1" stop-color="#efe8ca"/></linearGradient><linearGradient id="f" x1="0" y1=".5" x2="1.001" y2=".5" xlink:href="#b"/><linearGradient id="g" x1="-.186" y1=".5" x2=".815" y2=".5" xlink:href="#a"/><linearGradient id="h" x1="-.001" y1=".5" x2=".997" y2=".5" xlink:href="#b"/><linearGradient id="i" x1=".34" y1=".602" x2="1.344" y2=".003" gradientUnits="objectBoundingBox"><stop offset="0" stop-color="#010101" stop-opacity="0"/><stop offset=".47" stop-color="#010101" stop-opacity=".471"/><stop offset=".95" stop-color="#010101"/></linearGradient><linearGradient id="j" x1="-.002" y1=".497" x2=".999" y2=".497" xlink:href="#b"/><linearGradient id="k" x1=".88" y1=".282" x2=".296" y2=".617" xlink:href="#a"/><linearGradient id="l" x1=".606" y1=".505" x2="-.849" y2=".66" xlink:href="#a"/><linearGradient id="m" x1=".822" y1=".319" x2="-.532" y2="1.283" xlink:href="#a"/><linearGradient id="n" x1=".593" y1=".36" x2="1.053" y2="1.148" xlink:href="#a"/><linearGradient id="o" x1=".787" y1=".506" x2="-.895" y2=".621" xlink:href="#a"/><linearGradient id="p" x1=".519" y1="-.139" x2="-.026" y2="3.866" xlink:href="#a"/></defs><g data-name="Algorithms and Data Structures" transform="translate(-.009 .022)"><path data-name="Path 228" d="M145.43 17.35a130.371 130.371 0 00-14.86-2.16 106.07 106.07 0 00-68.2 18.15c-33.49 23-48 65.3-56.39 103.38-9.47 42.75-8.47 88.62 8.76 129.34 23.56 55.69 81.27 98.52 141.57 93.89 26.25-2 51.24-12.39 77.41-15.35 30.06-3.4 60.26 3.08 90.45 5a302.14 302.14 0 00133.33-21.88c24.86-10.19 49.25-24.57 63.78-47.17 21.73-33.83 16.73-78.61 2.39-116.2-7.61-20-17.54-39.06-27-58.26s-15.72-39.76-24.52-59C457.41 14.87 416.76-4.15 382.62.74c-30.09 4.3-55.93 23.94-85.54 30.8-14.06 3.25-28.63 3.54-43.06 3.2-24.48-.57-49-2.91-72.83-8.54-11.95-2.79-23.75-6.46-35.76-8.85z" fill="#fff" opacity=".24" style="isolation:isolate"/><path data-name="Path 229" d="M315.58 303.94c-5.49.28-11.47.76-15.45 4.54a593.33 593.33 0 00144.16-2.07c-3-5.57-10.57-6.38-16.92-6.52-18-.4-39.11-5.45-56.85-2.52-18.35 3.04-36.32 6.57-54.94 6.57z" fill="#fff" opacity=".24" style="isolation:isolate"/><path data-name="Path 230" d="M87.81 304.1c-3 .07-7.19 1.45-6.57 4.42.43 2 2.91 2.76 5 3.08 50.21 7.92 101.63 7.08 151.91-.45-.63-3.16-12.79-1.87-18-2.74-6.4-1.07-12.8-2.19-19.16-3.5a135.63 135.63 0 00-32.85-2.78z" fill="#fff" opacity=".24" style="isolation:isolate"/><rect data-name="Rectangle 51" width="242.42" height="158.04" rx="25.38" transform="translate(132.98 52.26)" fill="#fff"/><rect data-name="Rectangle 52" width="242.42" height="158.04" rx="25.38" transform="translate(131.64 52.26)" fill="#6c7889"/><path data-name="Path 231" d="M239.09 158.53a27.74 27.74 0 11-29.19-27.62 10.691 10.691 0 011.49-.07 27.7 27.7 0 0127.7 27.69z" fill="#fff" opacity=".24" style="isolation:isolate"/><path data-name="Path 232" d="M237.14 83.94c-.22.76-3.77 1.71-4.68 2.29a17.74 17.74 0 00-4.08 4c-2.17 2.86-3.88 6.06-6.44 8.58a9.92 9.92 0 00-1.94 2.2c-.69 1.19-.69 2.63-1.1 3.93a6.93 6.93 0 01-6.1 4.76 6.87 6.87 0 01-5.3 12 21.21 21.21 0 012.4 9.14 27.65 27.65 0 00-20.41 10.63 6.41 6.41 0 01-4.16-3.08c-2.21 2-5.75.72-8.07-1.11-8.39-6.51-10.75-19.58-5.15-28.61 2.75-4.5 8.65-8 13.15-5.3 1.18-1.9 3.84-2.47 6-1.9a15.73 15.73 0 015.75 3.54c-.42-3.32 2.4-6.52 5.68-7.17a10.07 10.07 0 019 3.51c-.92-1.07 17.25-16.72 19.16-18 1.07-.67 7.55-3.72 6.29.59z" fill="#fff" opacity=".45" style="isolation:isolate"/><path data-name="Path 233" d="M233.01 125.41c-6.93 8.92-15.69 18.29-27 18.49-2.07 0-4.23-.24-6.15.56-3.69 1.54-4.76 6.16-5.34 10.13-1.45 10-2.89 20.15-1 30 1.47 7.68 4.93 15.16 4.2 22.94-.14 1.43-.53 3-1.76 3.76a5.21 5.21 0 01-3.11.37l-17.32-1.52a7.45 7.45 0 01-4.08-1.17 7.16 7.16 0 01-2-3.41c-7-19.91-5.32-41.66-3.58-62.68.38-4.63.78-9.34 2.48-13.67s4.89-8.29 9.29-9.78c10-3.39 19.67 6.92 30.24 7.33 11 .42 18.69-9.26 26.56-15.43 2.63-2.07 9.09-8.28 9.67-1.93.42 4.22-8.58 12.82-11.1 16.01z" fill="#fff" opacity=".24" style="isolation:isolate"/><circle data-name="Ellipse 3" cx="27.71" cy="27.71" r="27.71" transform="translate(216.65 129.84)" fill="#fff" opacity=".24" style="isolation:isolate"/><path data-name="Path 234" d="M131.59 134.59c-1.07 2.69-2.16 5.54-1.66 8.39a14.44 14.44 0 002.19 5 99.349 99.349 0 0010.29 13.95 8.39 8.39 0 003.95 2.94 152.889 152.889 0 001.05-32 6 6 0 00-.65-2.77 6.25 6.25 0 00-2.89-2.11c-2.65-1.24-5.29-2.69-8-3.69-.8 1-3.46 10.29-4.28 10.29z" fill="#775538"/><path data-name="Path 235" d="M241.26 102.98l-11.06-1.81s-1.14-2.35.6-3.15l17.5 3z" fill="#606161"/><path data-name="Path 236" d="M207.49 122.89a19.43 19.43 0 005.05.07c.65-.26 19.57-15.28 26.82-19a21.7 21.7 0 0111.15-3.25c1.82-.12 4-.06 5 1.49a3.3 3.3 0 01-.23 3.48 7.19 7.19 0 01-2.82 2.29 18.9 18.9 0 01-7.45 2.09 6.49 6.49 0 00-2 .3 5.61 5.61 0 00-2.09 1.79q-8.05 9.53-16.85 18.37c-3.13 3.14-6.67 6.38-11.08 6.88a15.75 15.75 0 01-4.74-.31 33.34 33.34 0 01-8.74-3 4.17 4.17 0 01-1.55-1.16 3.88 3.88 0 01-.57-2.37 12.18 12.18 0 012.83-7.54c2.32-2.76 4.3-.78 7.27-.13z" fill="#775538"/><path data-name="Path 237" d="M181.1 85.77a29.3 29.3 0 01-.26 6.88c-.45 2.32-1.75 4.78-4 5.38-1.34.35-2.91 0-4 .91-.82.67-1.05 1.8-1.6 2.71a5.7 5.7 0 01-4.74 2.42 16.38 16.38 0 01-5.42-1.07 2.93 2.93 0 01-1.23-.62 3 3 0 01-.62-2.08q-.31-8.55-.24-17.12a11.62 11.62 0 01.76-4.84 9.77 9.77 0 014.58-4.09 28.681 28.681 0 018.68-2.84c2.79-.45 7.43-.19 7.94 3.41a30.651 30.651 0 01-.18 3.94c.05 2.31.24 4.65.33 7.01z" fill="#775538"/><path data-name="Path 238" d="M182.597 63.537a6.352 6.352 0 01.685 5.63 10.856 10.856 0 01-3.427 4.724 12.24 12.24 0 00-2.448 2.35c-1.481 2.215-.771 5.177-1.224 7.82a.494.494 0 01-.343.5c-.22.037-.379-.147-.526-.318a2.937 2.937 0 00-5.14 2.252c.171 1.591 1.6 2.9 1.542 4.5a4.675 4.675 0 01-1.126 2.448 4.112 4.112 0 01-1.872 1.615 4.48 4.48 0 01-1.934 0l-13.218-1.53a9.509 9.509 0 01-2.191-.428 6.694 6.694 0 01-3.831-4.43 21.1 21.1 0 01-.636-6.021c0-3.672-.171-7.539-1.677-10.941a2.986 2.986 0 01-.392-1.591 2.448 2.448 0 01.526-1c2.093-2.7 5.275-4.565 6.707-7.661a9.241 9.241 0 01.844-1.664c1.1-1.456 3.243-1.481 5.067-1.383l8.163.453c1.872.1 3.329-.6 5.116-.722a9.326 9.326 0 013.843.832c2.45 1.074 5.906 2.371 7.492 4.565z" fill="#27313e"/><path data-name="Path 240" d="M158.56 101.17c4 .7 8.2.52 12.3.68 6.22.23 12.61 1.33 17.83 4.71a45.629 45.629 0 015.95 4.89l9 8.31a2.12 2.12 0 01.88 2.25 17.73 17.73 0 01-5.92 11.4 1.38 1.38 0 01-.73.41 1.6 1.6 0 01-.79-.2l-10-4.64a17.229 17.229 0 000 5.95c2.57 14.43 0 29.46-1.26 44.06a4.51 4.51 0 01-.45 1.92 4.19 4.19 0 01-1.66 1.43c-5.63 3.15-12.4 3.28-18.85 3.24-6 0-12.35-.3-17.17-3.8a4.77 4.77 0 01-1.43-1.47 5.62 5.62 0 01-.46-2.61l-.56-38.05a7.21 7.21 0 00-.37-2.66c-.89-2.22-9.17-5.68-10.6-12.47 1.01-7.11 18.56-22.3 24.29-23.35z" fill="#fff"/><path data-name="Path 241" d="M171.55 167.76c4 .7 8.2.52 12.3.68 6.22.23 12.61 1.33 17.83 4.71a45.629 45.629 0 015.95 4.89l9 8.31a2.12 2.12 0 01.88 2.25 17.73 17.73 0 01-5.92 11.4 1.38 1.38 0 01-.73.41 1.6 1.6 0 01-.79-.2l-10-4.64a17.229 17.229 0 000 5.95c2.57 14.43 0 29.46-1.26 44.06a4.51 4.51 0 01-.45 1.92 4.19 4.19 0 01-1.66 1.43c-5.63 3.15-12.4 3.28-18.85 3.24-6 0-12.35-.3-17.17-3.8a4.77 4.77 0 01-1.43-1.47 5.62 5.62 0 01-.46-2.61l-.56-38.05a7.21 7.21 0 00-.37-2.66c-.89-2.22-9.17-5.68-10.6-12.47 1.01-7.11 18.56-22.3 24.29-23.35z" transform="translate(-12.99 -66.59)" fill="url(#c)"/><path data-name="Path 242" d="M185.34 180.87s8.25 44 8.25 49.89-10.72 62.48-10.72 62.48-9.39.54-11.8-2.68l4.56-54.15-7.62-23.26-3.93 30.48-24.94 48.27-12.32-7.49 24.19-52s-12.13-25.63-4.73-52.1z" fill="#606161"/><path data-name="Path 243" d="M198.33 247.46s8.25 44 8.25 49.89-10.72 62.48-10.72 62.48-9.39.54-11.8-2.68l4.56-54.15-7.62-23.26-3.93 30.48-24.94 48.27-12.32-7.49L164 299s-12.13-25.63-4.73-52.1z" transform="translate(-12.99 -66.59)" fill="url(#a)"/><path data-name="Path 244" d="M171.23 308.54a.89.89 0 00.07.43.81.81 0 00.48.34 16.89 16.89 0 005.54.79q9.09.24 18.2.41c0-2.9-2.5-5.25-5.19-6.33s-5.64-1.26-8.44-2a2.51 2.51 0 01-1.48-.82 2.64 2.64 0 01-.32-1.39l-.22-5.73a2.58 2.58 0 00-.63-1.92 2.54 2.54 0 00-.88-.41c-1.11-.33-3.95-1.52-5-.81s-1.05 3.62-1.21 4.82a95 95 0 00-.92 12.62z" fill="#606161"/><path data-name="Path 245" d="M122.55 297.29a1.15 1.15 0 00.22 1.66l8.79 10a2.8 2.8 0 00.84.74 3 3 0 001.22.23c3.64.15 7.3.14 10.94 0a8.1 8.1 0 00-4.21-5.62c-1.37-.7-3-1-4.16-2a9.42 9.42 0 01-2.35-3.43 3.65 3.65 0 01.17-4.46l1.81-3a2.62 2.62 0 00.5-2.34 2.52 2.52 0 00-1.11-1c-1.26-.74-3-2.25-4.44-2.52s-2 1.08-2.74 2.29c-1.77 3.07-4.02 6.18-5.48 9.45z" fill="#606161"/><rect data-name="Rectangle 53" width="71.6" height="4.83" rx="2.41" transform="translate(281.81 86.49)" fill="#fff" opacity=".24" style="isolation:isolate"/><rect data-name="Rectangle 54" width="71.6" height="4.83" rx="2.41" transform="translate(281.01 94.8)" fill="#fff" opacity=".24" style="isolation:isolate"/><rect data-name="Rectangle 55" width="71.6" height="4.83" rx="2.41" transform="translate(280.2 103.12)" fill="#fff" opacity=".24" style="isolation:isolate"/><rect data-name="Rectangle 56" width="71.6" height="4.83" rx="2.41" transform="translate(279.4 111.43)" fill="#fff" opacity=".24" style="isolation:isolate"/><path data-name="Rectangle 57" fill="#fff" opacity=".24" style="isolation:isolate" d="M278.33 124.84h74.28v65.43h-74.28z"/><path data-name="Path 246" d="M285.66 147.01l15.01 25.02 24.32-30.39 10.37 14.66 14.66-23.95v54.34h-69.01v-29.31z" fill="#fff" opacity=".24" style="isolation:isolate"/><path data-name="Path 247" d="M355.49 134.95c-3.43-3.24-8.71-3.95-13.27-2.76s-8.52 4.05-12 7.22a22.311 22.311 0 00-5.29 6.45c-1.63 3.3-1.82 7.12-1.84 10.8a142.275 142.275 0 002 24.3 4.54 4.54 0 00.75 2.14c1.28 1.59 3.78.85 5.81 1.07 2.46.27 4.47 2.16 5.72 4.3a59.415 59.415 0 012.88 6.83 26.56 26.56 0 008.53 10.81c2.7 2 6.67 3.43 9.27 1.28a8.31 8.31 0 002-3c12.4-27.05 2.2-59.61 11.13-88 .56-1.78 4.64-10.12 2-11.37-2-.9-5.05 4.27-5.91 5.43a75.65 75.65 0 00-7 10.92c-.82 1.51-6.15 12.29-4.78 13.58z" fill="#fff" opacity=".24" style="isolation:isolate"/><path data-name="Path 248" d="M279.43 138.07c-1.94 3.2-6.44 7-12.23 10.06-8.95 4.72-17.6 5.87-19.35 2.55a3.62 3.62 0 01.11-3.12c.8-2 2.82-4.38 5.72-6.71a43.49 43.49 0 017.2-4.68c5.56-2.94 11-4.5 14.74-4.46z" transform="translate(-12.99 -66.59)" fill="url(#d)"/><path data-name="Path 249" d="M240.69 74.26c-2.9 2.33-4.92 4.69-5.72 6.71-2.13-2.52-8-4.42-8-4.42 4.84-3.51 11.89-2.59 13.72-2.29z" fill="#fff" opacity=".24" style="isolation:isolate"/><path data-name="Path 250" d="M238.35 95.41s7.84-4 9.26-11.05c0 0-6.66 2.66-9.82 1.44 0 0 2.1 3.01.56 9.61z" fill="#fff" opacity=".24" style="isolation:isolate"/><path data-name="Path 251" d="M266.48 71.41l-3.81-6.36s6.25-1 7.09.12-2.86 5.74-3.28 6.24z" fill="#fff" opacity=".24" style="isolation:isolate"/><circle data-name="Ellipse 4" cx="2.82" cy="2.82" r="2.82" transform="translate(244 74.51)" fill="#fff" opacity=".24" style="isolation:isolate"/><circle data-name="Ellipse 5" cx="2.22" cy="2.22" r="2.22" transform="translate(250.47 71.79)" fill="#fff" opacity=".24" style="isolation:isolate"/><circle data-name="Ellipse 6" cx="2.22" cy="2.22" r="2.22" transform="translate(256.04 68.97)" fill="#fff" opacity=".24" style="isolation:isolate"/><path data-name="Path 252" d="M157.83 203.54v-17.66s-8.28 3.94-9.71 7.51c0 0 7.79 9.21 9.71 10.15z" transform="translate(-12.99 -66.59)" fill="url(#e)"/><path data-name="Path 253" d="M372.57 304.57a8.69 8.69 0 00.16 4.89c2.85 12.52 5.52 25.2 5.58 38 0 3.51-.19 7.11-1.58 10.33A19.689 19.689 0 01371 365c-.91.76-2 1.76-1.68 2.9a2.31 2.31 0 00.85 1.15 5.16 5.16 0 005.55.53 10.37 10.37 0 002.55-2.22l6.7-7.29a4.09 4.09 0 00.87-1.24 4.47 4.47 0 00-.33-2.88c-2.73-8.58.91-17.76 1.37-26.75.42-8.37-1.95-16.6-4.29-24.65a7.14 7.14 0 00-1.09-2.49 4.78 4.78 0 00-3.92-1.56 13.9 13.9 0 00-4.23 1.05" transform="translate(-12.99 -66.59)" fill="url(#b)"/><path data-name="Path 254" d="M386.34 306.29q1.85 14.47 3.45 29c1.11 10.14 2.12 20.57-.52 30.43-.54 2-1.18 4.42.09 6.1a4 4 0 005.2.69 6.92 6.92 0 002.88-4.78 25.531 25.531 0 000-5.73c-.66-12.23 2.13-24.36 2.88-36.58a52.549 52.549 0 00-.64-13.78c-.94-4.6-3.23-11.22-7.54-13.77-5.54-3.31-6.24 4.94-5.8 8.42z" transform="translate(-12.99 -66.59)" fill="url(#f)"/><path data-name="Path 255" d="M353.24 302.9a2.51 2.51 0 00-.68 1 1.67 1.67 0 00.94 1.75 4.32 4.32 0 002.08.35 12.66 12.66 0 007.63-2.3c2.93-2.27 4.3-6.23 7.49-8.1a.769.769 0 01.34-.14c.88-.11.57 1.6 1.32 2.05s1.36-.57 1.5-1.35a11.572 11.572 0 000-4.23c-.1-.47-.29-1-.76-1.14s-1.06.49-1.35 1a11.7 11.7 0 01-3.65 4.27c-2.85 1.83-5.71.88-8.75 1.56-2.64.65-4.34 3.4-6.11 5.28z" fill="#fff"/><path data-name="Path 256" d="M375.11 306.07a11.339 11.339 0 00.32 3.49 3.83 3.83 0 002.23 2.56 4.35 4.35 0 003.91-1 11 11 0 003.73-5.93 20.851 20.851 0 00.44-7.09c-.08-.95-.31-2.06-1.17-2.47a6.13 6.13 0 01-4.6 4.85 3.08 3.08 0 01-3.67-1.89c-1.37 1.82-1.15 5.21-1.19 7.48z" fill="#fff"/><path data-name="Path 257" d="M354.41 195.63a127.913 127.913 0 00.31 18.46l1 15.09 1.07 16.46a8.37 8.37 0 001.1 4.38c1 1.4 2.72 1.67 4.26 1.83a242.573 242.573 0 0026.93 1.33c1.18 0 2.52-.09 3.31-1.13a5.65 5.65 0 00.81-2.84c.52-5.26.62-10.58 1.15-15.84.85-8.6 2.84-17 3.67-25.56s.42-17.76-3.21-25.36a6.079 6.079 0 00-1.68-2.37 5.2 5.2 0 00-2.64-.8 203.776 203.776 0 00-25.29-1.15c-1.47 0-4.47-.56-5.76.29-1.13.74-2 3.77-2.51 5.12a46.111 46.111 0 00-2.52 12.09z" fill="#606161"/><path data-name="Path 258" d="M357.11 97.86c-1.26 3.75-2.05 7.85-.89 11.63a1.49 1.49 0 00.39.72 1.63 1.63 0 00.59.29l1.55.51a4.18 4.18 0 002.11.32 1.47 1.47 0 001.28-1.49l.61 2.18 8.31-.75a1.45 1.45 0 00.77-.23 1.36 1.36 0 00.38-1c.51-5.09.39-10.22.45-15.34 0-2.77.1-5.65-1-8.19s-3.78-4.63-6.51-4.11-4.1 2.66-4.52 5.17c-.62 3.55-2.37 6.9-3.52 10.29z" fill="#606161"/><path data-name="Path 259" d="M370.1 164.45c-1.26 3.75-2.05 7.85-.89 11.63a1.49 1.49 0 00.39.72 1.63 1.63 0 00.59.29l1.55.51a4.18 4.18 0 002.11.32 1.47 1.47 0 001.28-1.49l.61 2.18 8.31-.75a1.45 1.45 0 00.77-.23 1.36 1.36 0 00.38-1c.51-5.09.39-10.22.45-15.34 0-2.77.1-5.65-1-8.19s-3.78-4.63-6.51-4.11-4.1 2.66-4.52 5.17c-.62 3.55-2.37 6.9-3.52 10.29z" transform="translate(-12.99 -66.59)" fill="url(#g)"/><path data-name="Path 260" d="M398.01 122.62c1.85 3.84 2.09 8.23 2.29 12.49.42 8.54 3.18 17.84-.4 25.61-4.87 10.61 5.09 16.25-2.12 24.77-1.07 1.26-38.66 3.86-41.7-2.75-1.13-2.44 1.91-11.09 1.68-13.77-1.22-14.11-2.38-28.72 2.3-42.08a21.291 21.291 0 014.66-8.18c10.52-10.43 26.64-10.05 33.29 3.91z" fill="#fff"/><path data-name="Path 261" d="M398.01 122.62c1.85 3.84 2.09 8.23 2.29 12.49.42 8.54 3.18 17.84-.4 25.61-4.87 10.61 5.09 16.25-2.12 24.77-1.07 1.26-38.66 3.86-41.7-2.75-1.13-2.44 1.91-11.09 1.68-13.77-1.22-14.11-2.38-28.72 2.3-42.08a21.291 21.291 0 014.66-8.18c10.52-10.43 26.64-10.05 33.29 3.91z" fill="#fdcd00"/><path data-name="Path 262" d="M374.57 164.55a20.21 20.21 0 000 6.4 7.47 7.47 0 003.47 5.16 19.159 19.159 0 003.81 1.19 2 2 0 011 .5 1.73 1.73 0 01.38.78 17.232 17.232 0 01.16 4.25 4.54 4.54 0 001.58 3.79 3.53 3.53 0 003.15.23 7.51 7.51 0 002.66-1.88 9.473 9.473 0 001.33-1.63 11.05 11.05 0 001.21-6.07c0-2.78-.28-5.56-.3-8.34 0-4.92 2.35-7.85 2.19-12.76 0-.86-1.81-3.73-2.19-4.5a6.771 6.771 0 00-1.41-1.71 7 7 0 00-1.88-1.42 6.1 6.1 0 00-3.34-.2 29.73 29.73 0 00-6.93 1.93 7.21 7.21 0 00-2.35 1.42 3.07 3.07 0 00-.86 2.45 20.319 20.319 0 01-.56 3.33q-.69 3.53-1.12 7.08z" transform="translate(-12.99 -66.59)" fill="url(#h)"/><path data-name="Path 263" d="M361.56 75.41a15 15 0 00-4.48 9.15 8.879 8.879 0 00.15 3.33 3.68 3.68 0 001.31 2.07 4 4 0 002.55.59 4.68 4.68 0 002.7-.85 2.49 2.49 0 001-2.53l.26 2.5a.81.81 0 00.15.48.88.88 0 00.71.18l5.49-.3a1.27 1.27 0 001.45-1l1-2.64a5.24 5.24 0 00.81 2.95 2.65 2.65 0 003.38.56c-.05 7-.15 14.25-3.16 20.56a5.08 5.08 0 004.27 1.88 6.21 6.21 0 003.34-.76 3.3 3.3 0 001.68-2.84l-.12 1.75a.65.65 0 00.1.48.66.66 0 00.52.12l5.6-.4a1.35 1.35 0 001.44-1 51.669 51.669 0 003.86-9.11c1.44-5.08 1.31-10.47.82-15.72a17.49 17.49 0 00-.86-4.49c-1.61-4.27-6.18-6.76-10.66-7.59s-8.94-.21-13.41-.61a12.29 12.29 0 00-9.9 3.24z" fill="#606161"/><path data-name="Path 264" d="M374.55 142a15 15 0 00-4.48 9.15 8.879 8.879 0 00.15 3.33 3.68 3.68 0 001.31 2.07 4 4 0 002.55.59 4.68 4.68 0 002.7-.85 2.49 2.49 0 001-2.53l.26 2.5a.81.81 0 00.15.48.88.88 0 00.71.18l5.49-.3a1.27 1.27 0 001.45-1l1-2.64a5.24 5.24 0 00.81 2.95 2.65 2.65 0 003.38.56c-.05 7-.15 14.25-3.16 20.56a5.08 5.08 0 004.27 1.88 6.21 6.21 0 003.34-.76 3.3 3.3 0 001.68-2.84l-.12 1.75a.65.65 0 00.1.48.66.66 0 00.52.12l5.6-.4a1.35 1.35 0 001.44-1 51.669 51.669 0 003.86-9.11c1.44-5.08 1.31-10.47.82-15.72a17.49 17.49 0 00-.86-4.49c-1.61-4.27-6.18-6.76-10.66-7.59s-8.94-.21-13.41-.61a12.29 12.29 0 00-9.9 3.24z" transform="translate(-12.99 -66.59)" fill="url(#i)"/><path data-name="Path 265" d="M363.34 173.94l-34.75 4.94-11.1-48.39 34.75-4.94z" fill="#fff"/><path data-name="Path 266" d="M407.01 161.01c0 1.53 0 3.21-1 4.4s-2.79 1.6-4.4 1.78a56.53 56.53 0 01-33.71-6.78 5.46 5.46 0 01-2.06-1.68 5.39 5.39 0 01-.63-2.69 43.357 43.357 0 01.13-5.7 2.9 2.9 0 01.91-2.25 2.94 2.94 0 011.88-.32l15.76.78a2.14 2.14 0 001.52-.3 2 2 0 00.59-1.33c.85-5.08 0-10.3.5-15.43.39-3.72 2.12-10 6.4-11 5-1.17 6.61 5.12 7.89 8.61a101.42 101.42 0 016.22 31.91z" fill="#fdcd00"/><path data-name="Path 267" d="M371.76 213.18a10.591 10.591 0 00-2-.74 10.189 10.189 0 00-1.91-.16h-4.09a16 16 0 00-3.6.35 1.57 1.57 0 00-.9.49 1.46 1.46 0 00-.24.82 5.39 5.39 0 002.77 5 2.13 2.13 0 011 .8c.11.22.11.49.21.72a1.82 1.82 0 001 .81 19.75 19.75 0 006.83 1.72 2.36 2.36 0 01.95.18 6 6 0 01.61.42 3.5 3.5 0 002.91.23 19.8 19.8 0 012.89-.83c.82-.1 1.82-.07 2.23-.77a2 2 0 00.11-1.36 22 22 0 00-.51-3.44c-.26-.83-.94-1-1.71-1.31l-3.31-1.49c-.9-.41-2.49-.77-3.24-1.44z" transform="translate(-12.99 -66.59)" fill="url(#j)"/><path data-name="Path 268" d="M83.14 244.41a66.34 66.34 0 00-3.13-27.15c-1.69-5-4-9.86-5.49-15s-2.18-10.62-.57-15.68 2.77-9.37 5.42-13.95c2.92-5 5.89-10.13 10.08-14.15a55.24 55.24 0 00-8.06 42c.85 3.9 2.12 7.7 3.09 11.58 2.25 9 2.88 18.33 3 27.61 0 1.78 0 3.7-1.08 5.14s-2.19 1.07-3.26-.4z" fill="#fff"/><path data-name="Path 269" d="M73.6 163.21s16.31 14.93 15.41 35.6-3.27 45-2.67 46 10.25 1.06 10.25 1.06a459.368 459.368 0 01-.69-46.62c.9-25.93-22.3-36.04-22.3-36.04z" fill="#fff"/><path data-name="Path 270" d="M86.59 229.8s16.31 14.93 15.41 35.6-3.27 45-2.67 46 10.25 1.06 10.25 1.06a459.368 459.368 0 01-.69-46.62c.9-25.93-22.3-36.04-22.3-36.04z" transform="translate(-12.99 -66.59)" fill="url(#k)"/><path data-name="Path 271" d="M123.06 164.98s-19.3 15-23.74 39.65-6.73 41.34-6.73 41.34l11-.46s.15-39.81 8.73-57.88 10.74-22.65 10.74-22.65z" fill="#fff"/><path data-name="Path 272" d="M136.05 231.57s-19.3 15-23.74 39.65-6.73 41.34-6.73 41.34l11-.46s.15-39.81 8.73-57.88 10.74-22.65 10.74-22.65z" transform="translate(-12.99 -66.59)" fill="url(#l)"/><path data-name="Path 273" d="M101.77 150.41s7 25.88 2.61 38.74-6 57.18-6 57.18l-5.82-.38s.53-46.93 2.6-53.82 8.37-23.94 6.61-41.72z" fill="#fff"/><path data-name="Path 274" d="M114.76 217s7 25.88 2.61 38.74-6 57.18-6 57.18l-5.82-.38s.53-46.93 2.6-53.82 8.37-23.94 6.61-41.72z" transform="translate(-12.99 -66.59)" fill="url(#m)"/><path data-name="Path 275" d="M54.92 187.48s28-4.44 35.22 14.39 0 43.91 0 43.91l-3.82-.95s3.59-39.82-18-50.84z" fill="#fff"/><path data-name="Path 276" d="M67.91 254.07s28-4.44 35.22 14.39 0 43.91 0 43.91l-3.82-.95s3.59-39.82-18-50.84z" transform="translate(-12.99 -66.59)" fill="url(#n)"/><path data-name="Path 277" d="M96.13 311A66.34 66.34 0 0093 283.85c-1.69-5-4-9.86-5.49-15s-2.18-10.62-.57-15.68 2.77-9.37 5.42-13.95c2.92-5 5.89-10.13 10.08-14.15a55.24 55.24 0 00-8.06 42c.85 3.9 2.12 7.7 3.09 11.58 2.25 9 2.88 18.33 3 27.61 0 1.78 0 3.7-1.08 5.14s-2.19 1.07-3.26-.4z" transform="translate(-12.99 -66.59)" fill="url(#o)"/><path data-name="Path 278" d="M76.2 242.75h36.75l-7.35 56.96H82.94z" fill="#fff"/><path data-name="Path 279" d="M76.2 242.75h36.75l-7.35 56.96H82.94z" fill="url(#p)"/></g></svg>