<svg xmlns="http://www.w3.org/2000/svg" xmlns:xlink="http://www.w3.org/1999/xlink" width="444.142" height="407.323"><defs><linearGradient id="a" x1=".502" y1=".687" x2=".517" y2="1.901" gradientUnits="objectBoundingBox"><stop offset="0" stop-color="#010101" stop-opacity="0"/><stop offset=".95" stop-color="#010101"/></linearGradient><linearGradient id="c" x1=".148" y1="-.723" x2="2.17" y2="6.303" xlink:href="#a"/><linearGradient id="d" x1=".148" y1="-.724" x2="2.17" y2="6.302" xlink:href="#a"/><linearGradient id="e" x1=".148" y1="-.723" x2="2.172" y2="6.303" xlink:href="#a"/><linearGradient id="f" x1=".148" y1="-.724" x2="2.172" y2="6.302" xlink:href="#a"/><linearGradient id="g" x1=".149" y1="-.723" x2="2.172" y2="6.303" xlink:href="#a"/><linearGradient id="h" x1=".149" y1="-.724" x2="2.172" y2="6.302" xlink:href="#a"/><linearGradient id="i" x1=".501" y1="-1.744" x2=".495" y2="9.077" xlink:href="#a"/><linearGradient id="b" x1="1.762" y1="61.894" x2="1.709" y2="21.892" gradientUnits="objectBoundingBox"><stop offset="0" stop-color="#fff" stop-opacity="0"/><stop offset=".99" stop-color="#fff"/></linearGradient><linearGradient id="j" x1="2.618" y1="66.928" x2="2.536" y2="24.172" xlink:href="#b"/><linearGradient id="k" x1="1.193" y1="66.768" x2="1.165" y2="23.446" xlink:href="#b"/><linearGradient id="l" x1="2.137" y1="64.517" x2="2.078" y2="23.429" xlink:href="#b"/><linearGradient id="m" x1="1.94" y1="64.54" x2="1.891" y2="23.433" xlink:href="#b"/><linearGradient id="n" x1="2.212" y1="57.969" x2="2.154" y2="20.957" xlink:href="#b"/><linearGradient id="o" x1="2.429" y1="69.08" x2="2.368" y2="25.225" xlink:href="#b"/><linearGradient id="p" x1="1.438" y1="63.126" x2="1.408" y2="22.444" xlink:href="#b"/><linearGradient id="q" x1="2.043" y1="55.044" x2="1.998" y2="13.109" xlink:href="#b"/><linearGradient id="r" x1="3.079" y1="58.091" x2="3.009" y2="13.906" xlink:href="#b"/><linearGradient id="s" x1="1.34" y1="59.261" x2="1.315" y2="12.649" xlink:href="#b"/><linearGradient id="t" x1="2.472" y1="55.225" x2="2.421" y2="12.512" xlink:href="#b"/><linearGradient id="u" x1="2.221" y1="54.751" x2="2.178" y2="11.621" xlink:href="#b"/><linearGradient id="v" x1="2.547" y1="48.769" x2="2.497" y2="10.326" xlink:href="#b"/><linearGradient id="w" x1="2.793" y1="57.053" x2="2.74" y2="11.573" xlink:href="#b"/><linearGradient id="x" x1="1.615" y1="53.103" x2="1.588" y2="9.934" xlink:href="#b"/><linearGradient id="y" x1="2.326" y1="42.037" x2="2.286" y2="-1.631" xlink:href="#b"/><linearGradient id="z" x1="3.541" y1="42.944" x2="3.479" y2="-2.7" xlink:href="#b"/><linearGradient id="A" x1="1.487" y1="45.734" x2="1.465" y2="-4.402" xlink:href="#b"/><linearGradient id="B" x1="2.81" y1="39.925" x2="2.764" y2="-4.366" xlink:href="#b"/><linearGradient id="C" x1="2.504" y1="38.793" x2="2.466" y2="-6.202" xlink:href="#b"/><linearGradient id="D" x1="2.885" y1="34.071" x2="2.84" y2="-5.702" xlink:href="#b"/><linearGradient id="E" x1="3.159" y1="38.995" x2="3.112" y2="-8.376" xlink:href="#b"/><linearGradient id="F" x1="1.793" y1="37.435" x2="1.768" y2="-8.285" xlink:href="#b"/></defs><g data-name="Discrete Structures"><path data-name="Path 1144" d="M367.538 336.311c-13.21 5.07-27.17 8.17-40.12 13.86-21.14 9.34-38.67 25.21-58.67 36.78a146 146 0 01-27.21 12.26 152.769 152.769 0 01-28.75 6.56 188 188 0 01-39.13.95 253.355 253.355 0 01-37.31-5.69 386.222 386.222 0 01-54.31-16.82c-54.82-21.12-90.61-130.58-66.72-182.33 10.52-22.82 31.1-39.19 45.93-59.47 27.5-37.64 35.77-89.33 71.86-118.86 23.38-19.12 55.21-25.44 85.3-23.08s58.94 12.7 87 23.86c13.54 5.37 27.26 11.12 38.21 20.76 19.3 16.94 27.11 43 39.31 65.61 19.95 37 53.69 68.07 60.19 109.52 7.69 49.34-28.99 98.16-75.58 116.09z" fill="#fff" opacity=".24" style="isolation:isolate"/><path data-name="Rectangle 312" fill="#fff" d="M134.248 277.561h145.95v56.37h-145.95z"/><path data-name="Rectangle 313" transform="translate(134.248 277.561)" fill="url(#a)" d="M0 0h145.95v56.37H0z"/><path data-name="Rectangle 314" fill="#fff" d="M134.248 274.061h145.95v56.37h-145.95z"/><path data-name="Rectangle 315" transform="translate(139.968 283.431)" fill="url(#c)" d="M0 0h9.62v8.31H0z"/><path data-name="Rectangle 316" transform="translate(139.968 293.271)" fill="url(#c)" d="M0 0h9.62v8.31H0z"/><path data-name="Rectangle 317" transform="translate(139.968 303.111)" fill="url(#c)" d="M0 0h9.62v8.31H0z"/><path data-name="Rectangle 318" transform="translate(139.968 312.961)" fill="url(#d)" d="M0 0h9.62v8.31H0z"/><path data-name="Rectangle 319" transform="translate(152.648 283.431)" fill="url(#e)" d="M0 0h9.62v8.31H0z"/><path data-name="Rectangle 320" transform="translate(152.648 293.271)" fill="url(#e)" d="M0 0h9.62v8.31H0z"/><path data-name="Rectangle 321" transform="translate(152.648 303.111)" fill="url(#e)" d="M0 0h9.62v8.31H0z"/><path data-name="Rectangle 322" transform="translate(152.648 312.961)" fill="url(#f)" d="M0 0h9.62v8.31H0z"/><path data-name="Rectangle 323" transform="translate(165.338 283.431)" fill="url(#c)" d="M0 0h9.62v8.31H0z"/><path data-name="Rectangle 324" transform="translate(165.338 293.271)" fill="url(#c)" d="M0 0h9.62v8.31H0z"/><path data-name="Rectangle 325" transform="translate(165.338 303.111)" fill="url(#c)" d="M0 0h9.62v8.31H0z"/><path data-name="Rectangle 326" transform="translate(165.338 312.961)" fill="url(#d)" d="M0 0h9.62v8.31H0z"/><path data-name="Rectangle 327" transform="translate(178.018 283.431)" fill="url(#e)" d="M0 0h9.62v8.31H0z"/><path data-name="Rectangle 328" transform="translate(178.018 293.271)" fill="url(#e)" d="M0 0h9.62v8.31H0z"/><path data-name="Rectangle 329" transform="translate(178.018 303.111)" fill="url(#e)" d="M0 0h9.62v8.31H0z"/><path data-name="Rectangle 330" transform="translate(190.708 283.431)" fill="url(#c)" d="M0 0h9.62v8.31H0z"/><path data-name="Rectangle 331" transform="translate(190.708 293.271)" fill="url(#c)" d="M0 0h9.62v8.31H0z"/><path data-name="Rectangle 332" transform="translate(190.708 303.111)" fill="url(#c)" d="M0 0h9.62v8.31H0z"/><path data-name="Rectangle 333" transform="translate(203.388 283.431)" fill="url(#e)" d="M0 0h9.62v8.31H0z"/><path data-name="Rectangle 334" transform="translate(203.388 293.271)" fill="url(#e)" d="M0 0h9.62v8.31H0z"/><path data-name="Rectangle 335" transform="translate(203.388 303.111)" fill="url(#e)" d="M0 0h9.62v8.31H0z"/><path data-name="Rectangle 336" transform="translate(216.078 283.431)" fill="url(#c)" d="M0 0h9.62v8.31H0z"/><path data-name="Rectangle 337" transform="translate(216.078 293.271)" fill="url(#c)" d="M0 0h9.62v8.31H0z"/><path data-name="Rectangle 338" transform="translate(216.078 303.111)" fill="url(#c)" d="M0 0h9.62v8.31H0z"/><path data-name="Rectangle 339" transform="translate(228.758 283.431)" fill="url(#e)" d="M0 0h9.62v8.31H0z"/><path data-name="Rectangle 340" transform="translate(228.758 293.271)" fill="url(#e)" d="M0 0h9.62v8.31H0z"/><path data-name="Rectangle 341" transform="translate(228.758 303.111)" fill="url(#e)" d="M0 0h9.62v8.31H0z"/><path data-name="Rectangle 342" transform="translate(241.438 283.431)" fill="url(#g)" d="M0 0h9.62v8.31H0z"/><path data-name="Rectangle 343" transform="translate(241.438 293.271)" fill="url(#g)" d="M0 0h9.62v8.31H0z"/><path data-name="Rectangle 344" transform="translate(241.438 303.111)" fill="url(#g)" d="M0 0h9.62v8.31H0z"/><path data-name="Rectangle 345" transform="translate(241.438 312.961)" fill="url(#h)" d="M0 0h9.62v8.31H0z"/><path data-name="Rectangle 346" transform="translate(254.128 283.431)" fill="url(#c)" d="M0 0h9.62v8.31H0z"/><path data-name="Rectangle 347" transform="translate(254.128 293.271)" fill="url(#c)" d="M0 0h9.62v8.31H0z"/><path data-name="Rectangle 348" transform="translate(254.128 303.111)" fill="url(#c)" d="M0 0h9.62v8.31H0z"/><path data-name="Rectangle 349" transform="translate(254.128 312.961)" fill="url(#d)" d="M0 0h9.62v8.31H0z"/><path data-name="Rectangle 350" transform="translate(266.808 283.431)" fill="url(#e)" d="M0 0h9.62v8.31H0z"/><path data-name="Rectangle 351" transform="translate(266.808 293.271)" fill="url(#e)" d="M0 0h9.62v8.31H0z"/><path data-name="Rectangle 352" transform="translate(266.808 303.111)" fill="url(#e)" d="M0 0h9.62v8.31H0z"/><path data-name="Rectangle 353" transform="translate(266.808 312.961)" fill="url(#f)" d="M0 0h9.62v8.31H0z"/><path data-name="Rectangle 354" transform="translate(163.438 313.501)" fill="url(#i)" d="M0 0h75.22v8.15H0z"/><path data-name="Path 1145" d="M155.148 312.951c.26-1.11 1-2.5 2.12-2.14.59.19.88.84 1.1 1.42.61 1.59 3 3.77 3.58 5.37.11-4 .26-14.12 2.66-19.91a1.49 1.49 0 012.85.37c.93 6.58 1.54 17.23 1.92 15.05.49-2.75 2-24.82 6.13-22.3 1.3 3.92.38 19.09-.11 23.19 1.1-5.43 3.17-26.91 7.33-24.62 2.63 6.86-2.82 24.41-.32 31.32.46 1.27 1.45 2.63 2.81 2.53s2.07-1.54 2.15-2.83-.28-2.58-.18-3.87a2 2 0 011-1.73c1.2-.52 2.22 1 2.56 2.29a33.53 33.53 0 01-.3 18.42c-1.9 6.25-5.59 11.78-9.22 17.21a7.461 7.461 0 01-1.82 2.09 4.769 4.769 0 01-1.25.59 27.559 27.559 0 01-9.69 1.38c-14.17-.78-12.88-9.91-14-17.72a68.69 68.69 0 01.68-26.11z" fill="#a3685b"/><path data-name="Path 1146" d="M155.338 357.531a6 6 0 012.9-3 6.91 6.91 0 012.36-.32 95.941 95.941 0 0119.65 1.64 2.58 2.58 0 011.65.77 2.38 2.38 0 01.37 1.18 21.35 21.35 0 01-1 9.58 2 2 0 01-.76 1.16 2.14 2.14 0 01-1.33.12 173.086 173.086 0 00-20.1-1.1c-6.76-.03-6.67-4.67-3.74-10.03z" fill="#fff"/><path data-name="Path 1147" d="M180.588 406.701a263.675 263.675 0 01-38.84-5.93 8.58 8.58 0 01-.25-3.95 83 83 0 0110-28.18 5 5 0 012-2.21 4.72 4.72 0 012.18-.37 123.089 123.089 0 0124.54 1.89 4.56 4.56 0 013.16 1.49 4.47 4.47 0 01.59 2.48 129.26 129.26 0 01-3.38 34.78z" fill="#fff"/><path data-name="Path 1148" d="M209.948 353.721c-.54-1-.95-2.41 0-3a2.07 2.07 0 011.53-.17 12.53 12.53 0 015.18 2.11c2.39 1.67 5 4.34 7.68 3.14 2.32-1.05 2.52-4.21 2.37-6.76q-.76-12.8-1.54-25.61c0-.85 0-1.89.74-2.3 1.13-.61 2.23.84 2.7 2l6.12 15.5c1.17-3.73-.19-16.54.38-22.23a1.66 1.66 0 013.18-.49c1.85 4.45 3.86 16 4.21 18.74 1 8.16 1.51 1 1.81-.37.72-3.4-.22-15 1.83-15.89 3 .22 4 4.12 4.07 7.14s-1.51 14.72 1.43 15.42c1.3-3.26 1.2-9.19 2.95-9.41 2.74 1.26.32 13.73-.55 16.62-2.6 8.66-.93 7.52-3.52 16.17a15.929 15.929 0 01-2.8 6 12.549 12.549 0 01-6.25 3.45c-14.44 4.02-25.27-8.74-31.52-20.06z" fill="#a3685b"/><path data-name="Path 1149" d="M227.338 385.531a2.66 2.66 0 00.89 2 2.69 2.69 0 001.12.32 45.741 45.741 0 0017.58-1.31 3.481 3.481 0 001.65-.79 3.2 3.2 0 00.76-1.83c.56-3.87-1.16-7.66-2.84-11.19a1.41 1.41 0 00-.48-.64 1.36 1.36 0 00-.87-.05q-4.2.69-8.45 1c-2.06.14-5.44-.52-7.35.27-3.74 1.55-2.38 8.83-2.01 12.22z" fill="#fff"/><path data-name="Path 1150" d="M253.638 398.141a160.158 160.158 0 01-30 6.84c.13-4 .25-8.14.59-12.15.28-3.42 3.67-10.16 7.83-10.16 4.17-1.8 8.86-1.93 13.39-2.05 1.59 0 3.36 0 4.57 1.05s1.43 2.55 1.68 4c.72 4.11 1.44 8.28 1.94 12.47z" fill="#fff"/><path data-name="Path 1151" d="M318.278 245.821H76.838l-65.32-136.18h388.41z" fill="#e0d4cd" opacity=".52"/><path data-name="Path 1152" d="M131.058 231.951h-94.91c-5.52 0-11.43-3.08-13.21-6.89l-16.32-34.94c-1.77-3.81 1.26-6.89 6.77-6.89h94.92c5.51 0 11.42 3.08 13.2 6.89l16.32 34.91c1.78 3.81-1.25 6.92-6.77 6.92z" fill="#fff" opacity=".27"/><path data-name="Path 1153" d="M124.938 240.671h-94.92c-5.51 0-11.43-3.08-13.2-6.89l-16.32-34.91c-1.75-3.81 1.25-6.92 6.77-6.92h94.91c5.52 0 11.43 3.09 13.21 6.9l16.36 34.93c1.73 3.81-1.3 6.89-6.81 6.89z" fill="#fdcd00"/><path data-name="Path 1154" d="M300.548 201.201h94.92c5.52 0 11.43-3.09 13.21-6.89l16.31-34.92c1.78-3.8-1.25-6.89-6.76-6.89h-94.92c-5.51 0-11.43 3.09-13.21 6.89l-16.35 34.92c-1.74 3.8 1.29 6.89 6.8 6.89z" fill="#fff" opacity=".27"/><path data-name="Path 1155" d="M300.548 213.451h94.92c5.52 0 11.43-3.09 13.21-6.9l16.31-34.91c1.78-3.8-1.25-6.89-6.76-6.89h-94.92c-5.51 0-11.43 3.09-13.21 6.89l-16.35 34.91c-1.74 3.81 1.29 6.9 6.8 6.9z" fill="#c0c9d1"/><path data-name="Path 1156" d="M102.88 135.55h71.22l.8 5.11h-69.67z" fill="url(#b)" transform="translate(-.012 .001)"/><path data-name="Path 1157" d="M107.34 145.24h41.67l1.22 4.42h-40.86z" fill="url(#j)" transform="translate(-.012 .001)"/><path data-name="Path 1158" d="M165.82 145.24h131.14l-1.71 4.44H166.71z" fill="url(#k)" transform="translate(-.012 .001)"/><path data-name="Path 1159" d="M132.26 154.18h55.02l.46 4.29h-53.92z" fill="url(#l)" transform="translate(-.012 .001)"/><path data-name="Path 1160" d="M152.24 162.41h63.05l-.1 4.02h-61.82z" fill="url(#m)" transform="translate(-.012 .001)"/><path data-name="Path 1161" d="M219.4 162.41h52.84l-1.32 4.45h-51.71z" fill="url(#n)" transform="translate(-.012 .001)"/><path data-name="Path 1162" d="M154.3 170.04h46.89l.17 3.51h-46.07z" fill="url(#o)" transform="translate(-.012 .001)"/><path data-name="Path 1163" d="M205.69 170.04h96.76l-1.79 3.87h-94.87z" fill="url(#p)" transform="translate(-.012 .001)"/><path data-name="Path 1164" d="M123.12 179.51h57.84l.53 3.38h-56.81z" fill="url(#q)" transform="translate(-.012 .001)"/><path data-name="Path 1165" d="M126.09 185.95h34.1l.82 2.97h-33.56z" fill="url(#r)" transform="translate(-.012 .001)"/><path data-name="Path 1166" d="M173.95 185.95h107.33l-1.15 2.99H174.55z" fill="url(#s)" transform="translate(-.012 .001)"/><path data-name="Path 1167" d="M146.01 191.97h45.36l.32 2.93h-44.62z" fill="url(#t)" transform="translate(-.012 .001)"/><path data-name="Path 1168" d="M162.16 197.62h52.33l-.06 2.77h-51.48z" fill="url(#u)" transform="translate(-.012 .001)"/><path data-name="Path 1169" d="M217.9 197.62h43.86l-.91 3.07h-43.08z" fill="url(#v)" transform="translate(-.012 .001)"/><path data-name="Path 1170" d="M163.58 202.9h39.16l.12 2.46h-38.59z" fill="url(#w)" transform="translate(-.012 .001)"/><path data-name="Path 1171" d="M206.5 202.9h80.81l-1.25 2.71h-79.49z" fill="url(#x)" transform="translate(-.012 .001)"/><path data-name="Path 1172" d="M136.96 209.56h48.69l.37 2.41h-47.95z" fill="url(#y)" transform="translate(-.012 .001)"/><path data-name="Path 1173" d="M139.07 214.15h28.87l.59 2.13h-28.47z" fill="url(#z)" transform="translate(-.012 .001)"/><path data-name="Path 1174" d="M179.58 214.15h90.84l-.83 2.14h-89.58z" fill="url(#A)" transform="translate(-.012 .001)"/><path data-name="Path 1175" d="M155.66 218.48h38.58l.23 2.13h-38.04z" fill="url(#B)" transform="translate(-.012 .001)"/><path data-name="Path 1176" d="M169.2 222.58h44.73l-.05 2.03h-44.11z" fill="url(#C)" transform="translate(-.012 .001)"/><path data-name="Path 1177" d="M216.84 222.58h37.49l-.67 2.25h-36.91z" fill="url(#D)" transform="translate(-.012 .001)"/><path data-name="Path 1178" d="M170.23 226.47h33.62l.09 1.81h-33.2z" fill="url(#E)" transform="translate(-.012 .001)"/><path data-name="Path 1179" d="M207.08 226.47h69.38l-.92 2h-68.41z" fill="url(#F)" transform="translate(-.012 .001)"/><g data-name="Group 3" opacity=".52" fill="#fff"><path data-name="Path 1180" d="M9.178 201.371h36.56l.41 1.94h-35.76z"/><path data-name="Path 1181" d="M11.468 205.051h21.39l.63 1.68h-20.97z"/><path data-name="Path 1182" d="M41.488 205.051h67.33l-.88 1.69h-65.99z"/><path data-name="Path 1183" d="M24.258 208.451h28.25l.24 1.63h-27.69z"/><path data-name="Path 1184" d="M34.518 211.581h32.37l-.05 1.52h-31.74z"/><path data-name="Path 1185" d="M68.998 211.581h27.13l-.68 1.69h-26.55z"/><path data-name="Path 1186" d="M35.578 214.481h24.07l.09 1.33h-23.65z"/><path data-name="Path 1187" d="M61.958 214.481h49.67l-.91 1.47h-48.71z"/><path data-name="Path 1188" d="M19.568 218.081h29.69l.28 1.29h-29.17z"/><path data-name="Path 1189" d="M21.088 220.531h17.51l.42 1.13h-17.22z"/><path data-name="Path 1190" d="M45.668 220.531h55.1l-.59 1.13h-54.21z"/><path data-name="Path 1191" d="M31.318 222.811h23.29l.16 1.12h-22.9z"/><path data-name="Path 1192" d="M39.618 224.961h26.86l-.03 1.05h-26.43z"/><path data-name="Path 1193" d="M68.228 224.961h22.52l-.47 1.17h-22.12z"/><path data-name="Path 1194" d="M40.338 226.971h20.11l.06.93h-19.81z"/><path data-name="Path 1195" d="M62.378 226.971h41.49l-.65 1.03h-40.81z"/><path data-name="Path 1196" d="M26.678 229.501h24.99l.2.92h-24.63z"/><path data-name="Path 1197" d="M27.758 231.251h14.82l.3.81h-14.61z"/><path data-name="Path 1198" d="M48.558 231.251h46.63l-.42.81h-45.99z"/><path data-name="Path 1199" d="M36.278 232.891h19.8l.12.81h-19.53z"/><path data-name="Path 1200" d="M43.228 234.451h22.96l-.03.77h-22.64z"/><path data-name="Path 1201" d="M67.688 234.451h19.24l-.34.86h-18.95z"/><path data-name="Path 1202" d="M43.758 235.931h17.26l.04.69h-17.04z"/><path data-name="Path 1203" d="M62.678 235.931h35.61l-.47.76h-35.12z"/></g><g data-name="Group 4" opacity=".52" fill="#fff"><path data-name="Path 1204" d="M329.898 175.131h30.06l-.83 1.66h-29.4z"/><path data-name="Path 1205" d="M329.568 178.291h17.59l-.5 1.44h-17.24z"/><path data-name="Path 1206" d="M354.248 178.291h55.34l-1.74 1.45h-54.24z"/><path data-name="Path 1207" d="M338.038 181.201h23.22l-.79 1.4h-22.75z"/><path data-name="Path 1208" d="M344.588 183.881h26.61l-.96 1.31h-26.09z"/><path data-name="Path 1209" d="M372.928 183.881h22.3l-1.57 1.45h-21.82z"/><path data-name="Path 1210" d="M343.718 186.371h19.78l-.73 1.14h-19.44z"/><path data-name="Path 1211" d="M365.398 186.371h40.84l-1.64 1.26h-40.04z"/><path data-name="Path 1212" d="M328.388 189.451h24.41l-.55 1.11h-23.98z"/><path data-name="Path 1213" d="M328.168 191.551h14.39l-.33.97h-14.16z"/><path data-name="Path 1214" d="M348.368 191.551h45.29l-1.17.97h-44.55z"/><path data-name="Path 1215" d="M335.198 193.511h19.14l-.53.96h-18.83z"/><path data-name="Path 1216" d="M340.728 195.351h22.08l-.66.9h-21.73z"/><path data-name="Path 1217" d="M364.248 195.351h18.51l-1.09 1h-18.18z"/><path data-name="Path 1218" d="M340.108 197.071h16.53l-.51.8h-16.28z"/><path data-name="Path 1219" d="M358.228 197.071h34.1l-1.14.89h-33.55z"/><path data-name="Path 1220" d="M327.358 199.241h20.55l-.4.79h-20.24z"/><path data-name="Path 1221" d="M327.198 200.741h12.18l-.24.69h-12.01z"/><path data-name="Path 1222" d="M344.298 200.741h38.33l-.84.7h-37.8z"/><path data-name="Path 1223" d="M333.208 202.151h16.28l-.39.69h-16.05z"/><path data-name="Path 1224" d="M337.988 203.491h18.87l-.48.66h-18.62z"/><path data-name="Path 1225" d="M358.088 203.491h15.82l-.79.73h-15.58z"/><path data-name="Path 1226" d="M337.528 204.751h14.19l-.38.59h-14.01z"/><path data-name="Path 1227" d="M353.078 204.751h29.28l-.84.66h-28.87z"/></g></g></svg>