<svg xmlns="http://www.w3.org/2000/svg" xmlns:xlink="http://www.w3.org/1999/xlink" width="105.368" height="102" viewBox="0 0 105.368 102">
  <defs>
    <linearGradient id="linear-gradient" x1="0.918" y1="0.739" x2="-1.149" y2="-0.128" gradientUnits="objectBoundingBox">
      <stop offset="0" stop-opacity="0"/>
      <stop offset="0.99"/>
    </linearGradient>
    <linearGradient id="linear-gradient-2" x1="0.385" y1="0.34" x2="0.844" y2="1.129" xlink:href="#linear-gradient"/>
    <linearGradient id="linear-gradient-3" x1="0" y1="0.5" x2="1" y2="0.5" xlink:href="#linear-gradient"/>
    <linearGradient id="linear-gradient-4" x1="0.548" y1="0.186" x2="0.346" y2="1.573" xlink:href="#linear-gradient"/>
    <linearGradient id="linear-gradient-5" x1="0.601" y1="0.284" x2="0.352" y2="0.565" xlink:href="#linear-gradient"/>
    <linearGradient id="linear-gradient-6" x1="0.282" y1="0.611" x2="0.511" y2="0.29" xlink:href="#linear-gradient"/>
    <linearGradient id="linear-gradient-7" x1="0.999" y1="-0.295" x2="-3.045" y2="4.561" xlink:href="#linear-gradient"/>
    <linearGradient id="linear-gradient-8" x1="0.5" x2="0.5" y2="1" gradientUnits="objectBoundingBox">
      <stop offset="0" stop-color="#e6bdae"/>
      <stop offset="1" stop-color="#865a4a"/>
    </linearGradient>
    <linearGradient id="linear-gradient-9" x1="0.465" y1="0.756" x2="0.25" y2="2.311" xlink:href="#linear-gradient"/>
    <linearGradient id="linear-gradient-10" x1="0.627" y1="0.524" x2="-1.109" y2="0.089" xlink:href="#linear-gradient"/>
    <linearGradient id="linear-gradient-12" x1="0.457" y1="1.377" x2="0.802" y2="-5.016" gradientUnits="objectBoundingBox">
      <stop offset="0" stop-opacity="0"/>
      <stop offset="0.99" stop-color="#b42121"/>
      <stop offset="1"/>
    </linearGradient>
    <linearGradient id="linear-gradient-14" x1="0.542" y1="0.522" x2="0.279" y2="0.482" xlink:href="#linear-gradient"/>
    <linearGradient id="linear-gradient-15" x1="-0.514" y1="0.197" x2="0.887" y2="0.606" gradientUnits="objectBoundingBox">
      <stop offset="0.02" stop-color="#fff" stop-opacity="0"/>
      <stop offset="0.58" stop-color="#fff" stop-opacity="0.388"/>
      <stop offset="0.68" stop-color="#fff" stop-opacity="0.678"/>
      <stop offset="1" stop-color="#fff"/>
    </linearGradient>
    <linearGradient id="linear-gradient-16" x1="-0.514" y1="0.197" x2="0.886" y2="0.606" xlink:href="#linear-gradient-15"/>
    <linearGradient id="linear-gradient-17" x1="0.759" y1="0.508" x2="0.285" y2="0.585" xlink:href="#linear-gradient-15"/>
    <linearGradient id="linear-gradient-18" x1="0.491" y1="0.313" x2="0.849" y2="1.794" xlink:href="#linear-gradient"/>
    <linearGradient id="linear-gradient-19" x1="0" y1="0.5" x2="1" y2="0.5" xlink:href="#linear-gradient-15"/>
    <linearGradient id="linear-gradient-20" x1="0.374" y1="0.488" x2="1.842" y2="0.566" xlink:href="#linear-gradient"/>
    <linearGradient id="linear-gradient-23" x1="0.49" y1="0.36" x2="0.531" y2="2.902" xlink:href="#linear-gradient"/>
    <linearGradient id="linear-gradient-24" x1="0.493" y1="-1.478" x2="0.509" y2="2.959" xlink:href="#linear-gradient"/>
    <linearGradient id="linear-gradient-25" x1="0.51" y1="-0.211" x2="0.204" y2="22.18" xlink:href="#linear-gradient"/>
  </defs>
  <g id="Academic_-_1st_course_completed" data-name="Academic - 1st course completed" transform="translate(36 1)">
    <g id="Group_17" data-name="Group 17" transform="translate(-47 1)">
      <path id="Path_382" data-name="Path 382" d="M99.072,64.462c-2.127,2.53-4.71,4.678-6.522,7.448-2.127,3.244-3.064,7.119-4.513,10.729a22.262,22.262,0,0,1-2.38,4.55,16.045,16.045,0,0,1-1.638,1.967c-4.933,5.072-12.785,6.7-19.991,7.485a185.755,185.755,0,0,1-29.107.881c-4.262-.2-8.148-.9-12.176.181-3.931,1.052-8.144-.842-11.316-3.065A27.581,27.581,0,0,1,1.615,82.913,19.53,19.53,0,0,1,1.429,67.82C4.258,61.312,10.924,57.138,13.9,50.7a32.572,32.572,0,0,0,2.326-10.36q.893-8.605,1.189-17.27c.13-3.85.191-7.808,1.68-11.357C21.531,5.881,27.51,2.151,33.667.79S46.224.09,52.489.81C63.2,2.037,74.028,3.471,84.018,7.528l.233.094a5.943,5.943,0,0,1,2.186,1.31C87.429,10,87.557,11.576,87.868,13c.051.23.106.456.168.681,1.792,6.569,8.081,10.912,12.154,16.456C107.5,40.07,107.019,55.019,99.072,64.462Z" transform="translate(11 1)" fill="#113893" opacity="0.18"/>
      <rect id="Rectangle_65" data-name="Rectangle 65" width="2.211" height="10.316" transform="translate(34.579 87.211)" fill="#3f3d56"/>
      <path id="Path_383" data-name="Path 383" d="M7.108,0S13.2,1.53,14.554,3.571,9.308,24.316,9.308,24.316L0,23.977,2.707,7.987Z" transform="translate(49.316 73.947)" fill="#113893"/>
      <path id="Path_384" data-name="Path 384" d="M7.108,0S13.2,1.53,14.554,3.571,9.308,24.316,9.308,24.316L0,23.977,2.707,7.987Z" transform="translate(49.316 73.947)" fill="url(#linear-gradient)"/>
      <path id="Path_385" data-name="Path 385" d="M3.684,6.093V74.582A22.8,22.8,0,0,1,1.5,79.1,15.715,15.715,0,0,1,0,81.053V0L.214.093a5.385,5.385,0,0,1,2,1.3C3.128,2.45,3.245,4.019,3.53,5.433,3.576,5.655,3.627,5.869,3.684,6.093Z" transform="translate(94.263 8.368)" fill="#113893"/>
      <path id="Path_386" data-name="Path 386" d="M3.684,6.093V74.582A22.8,22.8,0,0,1,1.5,79.1,15.715,15.715,0,0,1,0,81.053V0L.214.093a5.385,5.385,0,0,1,2,1.3C3.128,2.45,3.245,4.019,3.53,5.433,3.576,5.655,3.627,5.869,3.684,6.093Z" transform="translate(94.263 8.368)" fill="url(#linear-gradient-2)"/>
      <path id="Path_387" data-name="Path 387" d="M1.356,1.4A7.14,7.14,0,0,0,0,5.685c-.1,4.778,3.063,9.138,7.041,11.647s8.664,3.481,13.273,4.28c3.014.523,6.277.954,8.985-.487a4.345,4.345,0,0,0,2.26-2.51c.574-2.025-.95-4-2.45-5.439a49.941,49.941,0,0,0-13.827-9.47C11.966,2.187,4.239-2.242,1.356,1.4Z" transform="translate(19.842 69.526)" fill="#3f3d56"/>
      <path id="Path_388" data-name="Path 388" d="M1.356,1.4A7.14,7.14,0,0,0,0,5.685c-.1,4.778,3.063,9.138,7.041,11.647s8.664,3.481,13.273,4.28c3.014.523,6.277.954,8.985-.487a4.345,4.345,0,0,0,2.26-2.51c.574-2.025-.95-4-2.45-5.439a49.941,49.941,0,0,0-13.827-9.47C11.966,2.187,4.239-2.242,1.356,1.4Z" transform="translate(19.842 69.526)" fill="url(#linear-gradient-3)"/>
      <path id="Path_389" data-name="Path 389" d="M47.158,35.418l-3.222.549-5.125.876-13.2-14.748S4.448,23.862,1.332,17.675C-.317,14.407-.161,9.661.35,5.91A45.936,45.936,0,0,1,1.562,0,58.876,58.876,0,0,0,18.493,5.744C27.849,7.291,47.158,35.418,47.158,35.418Z" transform="translate(27.211 62.158)" fill="#113893"/>
      <path id="Path_390" data-name="Path 390" d="M44.947,30.787l-5.243.9L26.2,16.578S4.551,18.388,1.362,12.051C-.324,8.7-.165,3.842.358,0c1.488,1.642,9.384,9.851,18.1,9.223C29.269,8.443,39.571,22.154,44.947,30.787Z" transform="translate(26.474 67.316)" fill="url(#linear-gradient-4)"/>
      <path id="Path_391" data-name="Path 391" d="M3.681,2.722a3.637,3.637,0,0,1-.7,1.945A9.343,9.343,0,0,1,1.932,5.8,16.075,16.075,0,0,0,0,8.1,11.507,11.507,0,0,1,.2,5.512q.168-.573.283-1.167c.1-.722-.061-1.473.05-2.192A4.806,4.806,0,0,1,.921.956,1.754,1.754,0,0,1,1.555.082a.833.833,0,0,1,.809.049A2.938,2.938,0,0,1,3.681,2.722Z" transform="translate(58.158 17.421)" fill="#3f3d56"/>
      <path id="Path_392" data-name="Path 392" d="M3.681,2.722a3.637,3.637,0,0,1-.7,1.945A9.343,9.343,0,0,1,1.932,5.8,16.075,16.075,0,0,0,0,8.1,11.507,11.507,0,0,1,.2,5.512q.168-.573.283-1.167c.1-.722-.061-1.473.05-2.192A4.806,4.806,0,0,1,.921.956,1.754,1.754,0,0,1,1.555.082a.833.833,0,0,1,.809.049A2.938,2.938,0,0,1,3.681,2.722Z" transform="translate(57.158 18.421)" fill="url(#linear-gradient-5)"/>
      <path id="Path_393" data-name="Path 393" d="M2.68,1.766a2.167,2.167,0,0,0,.182-1.6A.2.2,0,0,0,2.778.033.186.186,0,0,0,2.628,0,4.51,4.51,0,0,0,0,.927,3.5,3.5,0,0,1,1.01,2.259a2.549,2.549,0,0,1,.182,1.03c0,.074-.071.358-.011.392s.267-.211.311-.259A6.627,6.627,0,0,0,2.68,1.766Z" transform="translate(58.158 19.421)" fill="#2b2a44"/>
      <path id="Path_394" data-name="Path 394" d="M2.68,1.766a2.167,2.167,0,0,0,.182-1.6A.2.2,0,0,0,2.778.033.186.186,0,0,0,2.628,0,4.51,4.51,0,0,0,0,.927,3.5,3.5,0,0,1,1.01,2.259a2.549,2.549,0,0,1,.182,1.03c0,.074-.071.358-.011.392s.267-.211.311-.259A6.627,6.627,0,0,0,2.68,1.766Z" transform="translate(57.158 18.421)" fill="url(#linear-gradient-6)"/>
      <path id="Path_395" data-name="Path 395" d="M26.593.457,0,21.992l64.842.114L52.168,0Z" transform="translate(43.421 50.368)" fill="#fff"/>
      <path id="Path_396" data-name="Path 396" d="M1.04.056,9.579,0,9.133,2.211,0,1.935Z" transform="translate(74.368 53.316)" fill="#113893"/>
      <path id="Path_397" data-name="Path 397" d="M33.9.6,26.1,23.867,0,24.316l2.425-3.732.649-.994,7.258-.127,14.414-.249L31.418,0l2.476.6Z" transform="translate(66.263 38.579)" fill="#113893"/>
      <path id="Path_398" data-name="Path 398" d="M12.526.979,9.921.831A1.054,1.054,0,0,0,9.4.892a1.46,1.46,0,0,0-.412.4,2.67,2.67,0,0,1-1.567.831,7.57,7.57,0,0,1-1.8.054,8.372,8.372,0,0,1-1.932-.256c-.433-.121-.839-.31-1.259-.458A6.094,6.094,0,0,0,0,1.143L.653.129,7.983,0c.222.046.449.085.678.118.91.127,1.839.1,2.75.224C11.855.418,12.357.563,12.526.979Z" transform="translate(69.211 57)" fill="url(#linear-gradient-7)"/>
      <path id="Path_399" data-name="Path 399" d="M32.421,18.561s-.392.882-.766.732-2.689-1.127-2.689-1.127a2.385,2.385,0,0,1-.885.71,3.379,3.379,0,0,1-1.2.342,34.2,34.2,0,0,1-5.672-.6L3.883,19.9,0,16.362l.323-9.6L.55,0,6.8,14.03s18.31.845,21.166,2.2S32.421,18.561,32.421,18.561Z" transform="translate(49.316 37.842)" fill="url(#linear-gradient-8)"/>
      <path id="Path_400" data-name="Path 400" d="M28.737,12.234a3.492,3.492,0,0,1-1.232.345,35.431,35.431,0,0,1-5.8-.608L3.974,13.263,0,9.694.33,0,4.2,8.591s18.738.856,21.66,2.222C27.035,11.36,28,11.848,28.737,12.234Z" transform="translate(49.316 45.947)" fill="url(#linear-gradient-9)"/>
      <path id="Path_401" data-name="Path 401" d="M21.459,6c.021.172.043.343.074.513.274,1.542,1.706,9.622,2.015,11.473.284,1.69-1.481,4.821-2.11,5.864a7.476,7.476,0,0,0-.412.78l-3.3,6.968A9.4,9.4,0,0,1,5.915,36.224h0A8.911,8.911,0,0,1,.547,24.811c3.212-8.684,8.1-21.31,9.9-22.9C13.194-.5,20.48-1.962,21.459,6Z" transform="translate(28.684 32.684)" fill="#113893"/>
      <path id="Path_402" data-name="Path 402" d="M20.632,3.561a8.007,8.007,0,0,0-6.484,1.791C12.362,6.946,7.534,19.636,4.362,28.36a8.9,8.9,0,0,0,.8,7.745A8.969,8.969,0,0,1,.544,24.933c3.175-8.726,8-21.412,9.786-23.006C12.731-.218,18.6-1.61,20.632,3.561Z" transform="translate(28.684 32.684)" fill="url(#linear-gradient-10)"/>
      <path id="Path_403" data-name="Path 403" d="M6.467,3.321A3.648,3.648,0,0,0,4.674,7.406C5.4,10.159.043,3.894.043,3.894S-.651-.342,3.515.022,6.467,3.321,6.467,3.321Z" transform="translate(44.158 30.474)" fill="url(#linear-gradient-8)"/>
      <path id="Path_404" data-name="Path 404" d="M.268,2.718A4.958,4.958,0,0,1,1.8,1.282c.688-.257,2.083-.3,2.173.579A5.45,5.45,0,0,0,4.61,3.684,7.64,7.64,0,0,1,6.632,2.032,14.47,14.47,0,0,1,3.7.209C3.068-.5.593.81.593.81S-.487,2.162.268,2.718Z" transform="translate(44.158 31.211)" fill="url(#linear-gradient-12)"/>
      <path id="Path_405" data-name="Path 405" d="M12.17,5.724c-.378,1.236-1.127,2.476-.809,3.725a4.366,4.366,0,0,1,.193.757.689.689,0,0,1-.33.676,1.636,1.636,0,0,1-.431.1,3.184,3.184,0,0,0-2.052,2.05A3.914,3.914,0,0,1,6.91,15.306a3.385,3.385,0,0,1-2.561-.22A8.213,8.213,0,0,1,1.021,12.4a5.1,5.1,0,0,1-.942-1.946A5.5,5.5,0,0,1,.06,8.716,11.229,11.229,0,0,1,1.786,3.795,8.989,8.989,0,0,1,5.942.387,5.1,5.1,0,0,1,7.448.009a4.839,4.839,0,0,1,2.918.858c.659.428,1.826,1.2,2.052,1.952a5.616,5.616,0,0,1-.248,2.905Z" transform="translate(47.842 18.684)" fill="url(#linear-gradient-8)"/>
      <path id="Path_406" data-name="Path 406" d="M26,8.07a28.276,28.276,0,0,0-4.68,6.142,17.624,17.624,0,0,1-1.757,2.824,6.8,6.8,0,0,1-3.47,2.172,2.765,2.765,0,0,0-.82.289c-.584.373-.7,1.154-1.058,1.745a3.371,3.371,0,0,1-2.228,1.413c-.883.191-1.8.2-2.7.309-3.312.407-5.579,10.953-7.156,13.877.189-1.472-4.747-5.464-.223-12.867a2.836,2.836,0,0,0-.061-2.341c-.312-.888-1.121-1.722-.838-2.62a1.978,1.978,0,0,1,.82-.965c1.435-1,3.331-1.313,4.594-2.529-.076.23-.451.2-.59.014a.864.864,0,0,1-.051-.7,6.819,6.819,0,0,1,2.228-3.3c1-.9,2.138-1.661,3.107-2.6A1.412,1.412,0,0,1,10.485,7.1a3.175,3.175,0,0,1,1.529-1.47,10.99,10.99,0,0,0,1.878-1.073,22.137,22.137,0,0,0,1.587-1.806A9.568,9.568,0,0,1,18.717.788,9.455,9.455,0,0,1,20.945.057a6.138,6.138,0,0,1,2.6.2,15.22,15.22,0,0,1,5.815,3.787c.4.36.791.723,1.185,1.089.2.2.437.44.392.723s-1.89.167-2.275.309A7.6,7.6,0,0,0,26,8.07Z" transform="translate(30.158 12.789)" fill="#3f3d56"/>
      <path id="Path_407" data-name="Path 407" d="M26,8.07a28.276,28.276,0,0,0-4.68,6.142,17.624,17.624,0,0,1-1.757,2.824,6.8,6.8,0,0,1-3.47,2.172,2.765,2.765,0,0,0-.82.289c-.584.373-.7,1.154-1.058,1.745a3.371,3.371,0,0,1-2.228,1.413c-.883.191-1.8.2-2.7.309-3.312.407-5.579,10.953-7.156,13.877.189-1.472-4.747-5.464-.223-12.867a2.836,2.836,0,0,0-.061-2.341c-.312-.888-1.121-1.722-.838-2.62a1.978,1.978,0,0,1,.82-.965c1.435-1,3.331-1.313,4.594-2.529-.076.23-.451.2-.59.014a.864.864,0,0,1-.051-.7,6.819,6.819,0,0,1,2.228-3.3c1-.9,2.138-1.661,3.107-2.6A1.412,1.412,0,0,1,10.485,7.1a3.175,3.175,0,0,1,1.529-1.47,10.99,10.99,0,0,0,1.878-1.073,22.137,22.137,0,0,0,1.587-1.806A9.568,9.568,0,0,1,18.717.788,9.455,9.455,0,0,1,20.945.057a6.138,6.138,0,0,1,2.6.2,15.22,15.22,0,0,1,5.815,3.787c.4.36.791.723,1.185,1.089.2.2.437.44.392.723s-1.89.167-2.275.309A7.6,7.6,0,0,0,26,8.07Z" transform="translate(30.158 12.789)" fill="url(#linear-gradient-14)"/>
      <path id="Path_408" data-name="Path 408" d="M0,19.286l1.022,4.293L8.1.529,6.272,0Z" transform="translate(91.316 38.579)" opacity="0.69" fill="url(#linear-gradient-15)"/>
      <path id="Path_409" data-name="Path 409" d="M0,16.271l1.02,3.623L8.1.444,6.271,0Z" transform="translate(91.316 38.579)" opacity="0.69" fill="url(#linear-gradient-16)"/>
      <g id="Group_16" data-name="Group 16" transform="translate(78.982 58.508)">
        <path id="Path_410" data-name="Path 410" d="M.766,0,0,2.8l1.75-.064L2.006.062Z" transform="translate(0 0.045)" fill="#fff"/>
        <path id="Path_411" data-name="Path 411" d="M0,0,.738.024,1.2,2.51H.327Z" transform="translate(8.842 0.012)" fill="#fff"/>
        <path id="Path_412" data-name="Path 412" d="M0,0H1.135l.45,2.514L.236,2.5Z" transform="translate(7.201)" fill="#fff"/>
        <path id="Path_413" data-name="Path 413" d="M.073,0H1.24l.145,2.484H0Z" transform="translate(5.561 0.045)" fill="#fff"/>
        <path id="Path_414" data-name="Path 414" d="M.129.016,1.313,0,1.4,2.582H0Z" transform="translate(3.882 0.061)" fill="#fff"/>
        <path id="Path_415" data-name="Path 415" d="M.274,0,1.311.017,1.276,2.6H0Z" transform="translate(2.206 0.107)" fill="#fff"/>
      </g>
      <path id="Path_416" data-name="Path 416" d="M0,.218a31.113,31.113,0,0,0,1.044,4.2l4.135-.063A29.452,29.452,0,0,0,5.886.375L4.657,0Z" transform="translate(85.421 49.632)" fill="#113893"/>
      <path id="Path_417" data-name="Path 417" d="M0,.578A28.7,28.7,0,0,0,.769,4.4l3.037.024A34.822,34.822,0,0,0,4.413.381L3.359,0Z" transform="translate(86.895 49.632)" opacity="0.69" fill="url(#linear-gradient-17)"/>
      <path id="Path_418" data-name="Path 418" d="M0,3.684A24.785,24.785,0,0,0,.727,0" transform="translate(90.579 50.368)" fill="#113893"/>
      <path id="Path_419" data-name="Path 419" d="M.34,2.039A.322.322,0,0,1,.164,1.9C.109,1.772.323,1.671.5,1.647a2.316,2.316,0,0,1,1.169.145A8.138,8.138,0,0,1,0,.506a4.74,4.74,0,0,1,1.5.516A2.161,2.161,0,0,1,2.812.151,5.455,5.455,0,0,1,4.558.02a.706.706,0,0,1,.513.172c.113.15,0,.344-.1.491a.993.993,0,0,1,.91-.468,10.863,10.863,0,0,1-.727.947A2.6,2.6,0,0,1,6.377.943a.408.408,0,0,1,.19.029c.129.076.041.238-.063.334-.436.4-1.052.719-1.287,1.219a5.442,5.442,0,0,0-.218.8.367.367,0,0,1-.12.2.617.617,0,0,1-.292.088A3.065,3.065,0,0,1,2.42,3.354,9.507,9.507,0,0,0,.34,2.039Z" transform="translate(83.947 44.474)" fill="#113893"/>
      <path id="Path_420" data-name="Path 420" d="M.34,2.039A.322.322,0,0,1,.164,1.9C.109,1.772.323,1.671.5,1.647a2.316,2.316,0,0,1,1.169.145A8.138,8.138,0,0,1,0,.506a4.74,4.74,0,0,1,1.5.516A2.161,2.161,0,0,1,2.812.151,5.455,5.455,0,0,1,4.558.02a.706.706,0,0,1,.513.172c.113.15,0,.344-.1.491a.993.993,0,0,1,.91-.468,10.863,10.863,0,0,1-.727.947A2.6,2.6,0,0,1,6.377.943a.408.408,0,0,1,.19.029c.129.076.041.238-.063.334-.436.4-1.052.719-1.287,1.219a5.442,5.442,0,0,0-.218.8.367.367,0,0,1-.12.2.617.617,0,0,1-.292.088A3.065,3.065,0,0,1,2.42,3.354,9.507,9.507,0,0,0,.34,2.039Z" transform="translate(83.947 44.474)" fill="url(#linear-gradient-18)"/>
      <path id="Path_421" data-name="Path 421" d="M3.583.613,28.665,0l.809,6.632L0,6.387Z" transform="translate(61.105 63.632)" fill="#dedee0"/>
      <path id="Path_422" data-name="Path 422" d="M3.582.613,28.665,0l.809,6.632L0,6.387Z" transform="translate(60.368 63.632)" opacity="0.69" fill="url(#linear-gradient-19)"/>
      <path id="Path_423" data-name="Path 423" d="M.3,4.823.241.058,7.368,0,5.738,13.2l-4.288.058L0,8.784Z" transform="translate(61.842 40.053)" fill="#113893"/>
      <path id="Path_424" data-name="Path 424" d="M.3,4.823.241.058,7.368,0,5.738,13.2l-4.288.058L0,8.784Z" transform="translate(61.842 40.053)" fill="url(#linear-gradient-20)"/>
      <path id="Path_425" data-name="Path 425" d="M29.215,17.484q-7.772,6.2-15.965,11.833c-2.156,1.484-4.482,2.989-7.1,3.1a3.78,3.78,0,0,1-2.319-.539A5.048,5.048,0,0,1,2.173,28.54,116.124,116.124,0,0,1,.012,7.878a13.367,13.367,0,0,1,.472-4.64A4.785,4.785,0,0,1,3.628.022,4.266,4.266,0,0,1,8.272,3.263c1.047,3.737,0,19.955.746,20.1s15.616-7.553,15.616-7.553c.315,0,.378-.563.425-.876a3.848,3.848,0,0,0-.03-.941,8.338,8.338,0,0,1,1.315-5.286,2.6,2.6,0,0,1,.272,1.61l-.053,1.224a.626.626,0,0,0,.087.439.524.524,0,0,0,.335.157A3.319,3.319,0,0,0,28.7,11.75a24.421,24.421,0,0,1,3.569-1.171.7.7,0,0,1,.575.03.545.545,0,0,1,.114.632c-.079.216-.226.407-.293.626a.281.281,0,0,0,0,.2c.053.106.2.12.291.187a.61.61,0,0,1,.173.492l.014.455a4.733,4.733,0,0,1-.487,2.8,3.148,3.148,0,0,1-1.638,1.169,7.518,7.518,0,0,1-1.8.315Z" transform="translate(35.316 35.632)" fill="url(#linear-gradient-8)"/>
      <path id="Path_426" data-name="Path 426" d="M.042,1.474H8.1V.785l-.613-.1L7.37,0,.572.063.327.752,0,.878l.042.6Z" transform="translate(61.842 39.316)" fill="#113893"/>
      <path id="Path_427" data-name="Path 427" d="M.04,1.474H8.1V.783L7.491.689,7.368,0,.572.061.327.752,0,.877l.04.6Z" transform="translate(61.105 40.053)" opacity="0.69" fill="url(#linear-gradient-19)"/>
      <path id="Path_428" data-name="Path 428" d="M0,1.474.22,0,2.211,1.41Z" transform="translate(62.579 38.579)" fill="#113893"/>
      <path id="Path_429" data-name="Path 429" d="M0,1.474.22,0,2.211,1.41Z" transform="translate(62.579 38.579)" fill="url(#linear-gradient-23)"/>
      <rect id="Rectangle_66" data-name="Rectangle 66" width="64.105" height="2.211" transform="translate(44.158 72.474)" fill="#dedee0"/>
      <path id="Path_430" data-name="Path 430" d="M25.789,0,0,.724v.75L25.789.75Z" transform="translate(66.263 62.158)" fill="#113893"/>
      <path id="Path_431" data-name="Path 431" d="M25.789,0,0,.724v.75L25.789.75Z" transform="translate(66.263 62.158)" fill="url(#linear-gradient-24)"/>
      <path id="Path_432" data-name="Path 432" d="M9.245,1.5,0,2.211,2.412.59l7.9-.59Z" transform="translate(59.632 57.737)" fill="url(#linear-gradient-25)"/>
    </g>
    <circle id="Ellipse_14" data-name="Ellipse 14" cx="50" cy="50" r="50" transform="translate(-35)" fill="none" stroke="#103893" stroke-miterlimit="10" stroke-width="2"/>
  </g>
</svg>
