<svg xmlns="http://www.w3.org/2000/svg" xmlns:xlink="http://www.w3.org/1999/xlink" width="473.459" height="430.704"><defs><linearGradient id="b" y1=".5" x2="1" y2=".5" gradientUnits="objectBoundingBox"><stop offset="0" stop-color="#e5c6d6"/><stop offset=".42" stop-color="#ead4d0"/><stop offset="1" stop-color="#f0e9cb"/></linearGradient><linearGradient id="a" x1="-.038" y1=".037" x2="2.695" y2="2.543" gradientUnits="objectBoundingBox"><stop offset="0" stop-color="#010101" stop-opacity="0"/><stop offset=".95" stop-color="#010101"/></linearGradient><linearGradient id="c" x1=".507" y1=".952" x2=".469" y2="-2.432" xlink:href="#a"/><linearGradient id="d" x1=".369" y1=".556" x2="1.577" y2=".063" xlink:href="#a"/><linearGradient id="e" x1=".405" y1=".932" x2=".92" y2="-2.522" xlink:href="#a"/><linearGradient id="f" x1=".801" y1=".531" x2="-1.798" y2=".338" xlink:href="#a"/><linearGradient id="g" x1=".238" y1=".876" x2="1.951" y2="-2.34" xlink:href="#a"/></defs><g data-name="Organization and Human Resources" transform="translate(.002)"><path data-name="Path 4260" d="M22.74 317.29c-5.28-7.4-8.64-16-11.74-24.52-9.44-26-16.82-55.7-4.59-80.5 9-18.21 26.94-30.16 44.95-39.53 48.46-25.2 102.84-38 150.09-65.41 9.81-5.69 19.56-12.09 30.56-14.55 11.4-2.54 23.29-.67 34.74 1.65a442.239 442.239 0 0150.72 13.44c8.09 2.67 16.23 5.64 23.15 10.62 8.93 6.43 15.24 15.76 22.24 24.25 24.09 29.17 57.39 49.17 84.39 75.67 12.28 12.08 23.76 26.46 25.85 43.57 1.9 15.12-3.95 30.51-13.45 42.43s-22.38 20.7-35.82 27.88c-19.25 10.28-41.88 19.45-50.35 39.57-3.35 8-4 16.86-7.38 24.81-6 14.18-20.08 23.66-34.88 27.92s-30.46 4-45.86 3.81l-59-.94c-19.94-.31-41.74-1.32-56.66-14.54-7.76-6.87-23.56-41.83-83.47-58.73-23.45-6.62-48.61-16.01-63.49-36.9z" fill="#fff" opacity=".24" style="isolation:isolate"/><path data-name="Path 4261" d="M219 337.35l.67 76.25 9.45.67 7.42-75.57z" fill="url(#b)"/><path data-name="Path 4262" d="M256.78 337.35l.68 76.25 9.44.67 7.42-75.57z" fill="url(#b)"/><rect data-name="Rectangle 1148" width="437.21" height="281.59" rx="29.7" transform="translate(27.38)" fill="#fff" opacity=".24" style="isolation:isolate"/><path data-name="Path 4263" d="M464.57 31.87V241.5a29 29 0 01-28.93 29H56.31a29 29 0 01-28.93-29V31.87a29.36 29.36 0 01.21-3.56A29 29 0 0156.31 2.97h379.33a29 29 0 0128.72 25.38 29.353 29.353 0 01.21 3.52z" fill="#fff" opacity=".24" style="isolation:isolate"/><path data-name="Path 4264" d="M464.36 28.35H27.59A29 29 0 0156.31 2.97h379.33a29 29 0 0128.72 25.38z" fill="#fff"/><circle data-name="Ellipse 200" cx="9.08" cy="9.08" r="9.08" transform="translate(236.29 6.05)" fill="#fff" opacity=".65" style="isolation:isolate"/><path data-name="Rectangle 1149" fill="#e0d4cd" d="M248.39 34.41h204.06v114.16H248.39z"/><path data-name="Rectangle 1150" fill="#e0d4cd" d="M39.91 34.41h204.06v226.66H39.91z"/><path data-name="Path 4265" d="M83.01 168.87c15.11-7.06 33.51-8.05 51.12-8.73 19-.73 39.44-1 55.21 7.23 7.9 4.12 13.89 10.06 19.74 15.89a26.781 26.781 0 015.33 6.54c1.54 3.07 1.55 6.46 1.54 9.76l-.11 45.12c0 2.95 0 6-1.54 8.71-4.21 7.65 10.37 7.48-.34 7.48-47.93 0-174 .23-174 .23 2.78-.24 5.71-25.72 5.65-28.32-.21-9-2.81-16.58 1.54-25 7.52-14.83 17.73-30.46 35.86-38.91z" fill="#fff"/><path data-name="Path 4266" d="M207.58 217.43c-1 7.77-4.31 15-6 22.7s-1.27 16.52 4.07 22.2 20.76 18.44 22.17 20.32c2.82 3.77 35.41-2.37 44.53-1.46 5.05.51 10-16.64 15.34-27.23 1.44-2.84 3.86-5 5.63-7.69 4.36-6.56 4.3-15.2 2.58-22.92s-4.9-15.06-6.3-22.84c-1.71-9.46-.85-19.71-5.38-28.17-8-14.85-40.17-23.65-56.08-18.74-27.57 8.51-17.96 43.4-20.56 63.83z" transform="translate(-12.99 -3.13)" fill="url(#a)"/><path data-name="Rectangle 1151" fill="#e0d4cd" d="M248.39 153.7h204.06v114.16H248.39z"/><path data-name="Path 4267" d="M425.32 253.46c-3.76-4.44-8.46-8.09-11.67-12.94-3.42-5.17-5-11.51-9.15-16.13-6.32-7.09-17-8.39-26.4-6.88s-18.28 5.27-27.69 6.56c-11.53 1.57-24.67-.21-33.49 7.38-4.58 4-7.19 9.95-12.17 13.39-4.34 3-9.83 3.63-15.08 4.14s-10.73 1.08-15.14 4-7.22 9-4.75 13.6c2.93 5.51 10.62 5.72 16.84 5.2 27.56-2.31 55.18-4.37 82.85-4.7 13.8-.16 27.62.1 41.39 1 3.3.21 17.46 3.35 19.52 1.07 3.39-3.77-2.8-13.01-5.06-15.69z" fill="#fff" opacity=".18" style="isolation:isolate"/><path data-name="Path 4268" d="M207.41 206.87c-1 7.77-4.31 15-6 22.7s-1.27 16.51 4.07 22.2 20.76 18.44 22.17 20.32c2.82 3.77 35.41-2.37 44.52-1.46 5.06.51 10-16.64 15.35-27.23 1.44-2.84 3.86-5 5.63-7.69 4.36-6.56 4.3-15.2 2.58-22.92s-4.9-15.06-6.3-22.84c-1.71-9.47-.85-19.71-5.38-28.17-8-14.85-40.17-23.65-56.08-18.74-27.57 8.52-17.96 43.41-20.56 63.83z" fill="#fff"/><path data-name="Path 4269" d="M249.87 88.74a26 26 0 0120.27 17.9c2.36 8 .64 16.66 1.11 25a47.58 47.58 0 005.45 19.54c1.95 3.67 4.38 7.09 5.92 10.94a26.83 26.83 0 01-9 30.87c-4.54 3.25-10 5-15 7.46a50.91 50.91 0 00-16.74 13.51c-7.37.15-12.76-7.42-14-14.69s.29-14.76-.51-22.1c-1.39-12.73-9.61-25.43-5.27-37.48 1.89-5.24 6.08-9.87 5.9-15.43-.31-9.6-10.16-15.24-4-25.32 4.7-7.6 17.62-11.55 25.87-10.2z" fill="#27313e"/><path data-name="Path 4270" d="M215.62 259.08l64.44 1.49s2.7 16.65 1.35 26.46-2 32.41-2 32.41l-3.71 21.11-60.05 1.19s-.7-65.41-.03-82.66z" fill="#606161"/><path data-name="Path 4271" d="M222.39 408.72a4.41 4.41 0 00-2.24.52 3.38 3.38 0 00-1.09 3.33c.18 1.22.7 2.37.84 3.6.12 1.06 0 2.3.79 3a3.24 3.24 0 002 .68c1.39.15 2.78.24 4.18.27a3.09 3.09 0 001.54-.24c1.09-.59 1.1-2.11 1.06-3.34s1.29-6.82.66-7.69c-1.04-1.32-6.2-.2-7.74-.13z" fill="#fff"/><path data-name="Path 4272" d="M260.17 408.72a4.35 4.35 0 00-2.23.52 3.36 3.36 0 00-1.1 3.33c.19 1.22.7 2.37.84 3.6.12 1.06 0 2.3.79 3a3.25 3.25 0 002 .68c1.38.15 2.78.24 4.17.27a3.13 3.13 0 001.55-.24c1.08-.59 1.1-2.11 1-3.34s1.3-6.82.66-7.69c-.98-1.32-6.13-.2-7.68-.13z" fill="#fff"/><path data-name="Path 4273" d="M223.83 418.43c-1.44-.19-3.06-.37-4.21.52a3.548 3.548 0 01-.74.55 3.109 3.109 0 01-1.05.16 4.06 4.06 0 00-3.24 2.92 7.37 7.37 0 00.26 4.54 3.8 3.8 0 001 1.74 4 4 0 001.64.72 40.592 40.592 0 007.28 1.07c1.52.11 3.2.14 4.39-.81 1.35-1.07 1.59-3 1.73-4.72a12.16 12.16 0 00-.12-4c-1.04-4.13-3.92-2.25-6.94-2.69z" fill="#606161"/><path data-name="Path 4274" d="M261.54 418.43c-1.44-.19-3.06-.37-4.21.52a3.55 3.55 0 01-.74.55 3.11 3.11 0 01-1.05.16 4.06 4.06 0 00-3.24 2.92 7.44 7.44 0 00.26 4.54 3.73 3.73 0 001 1.74 3.94 3.94 0 001.63.72 40.571 40.571 0 007.29 1.07c1.52.11 3.19.14 4.38-.81 1.35-1.07 1.59-3 1.73-4.72a12.16 12.16 0 00-.12-4c-1.03-4.13-3.91-2.25-6.93-2.69z" fill="#606161"/><path data-name="Path 4275" d="M126.52 184.93c5.33 4.06 12.42 6.94 19.12 5.79 9.11-1.58 14.42-10 15.55-18.13s-.74-16.47-.27-24.68c.29-5.14 1.49-10.34.08-15.4-2.12-7.63-10.37-13.63-19.18-14.7a27.29 27.29 0 00-23.08 8.45c-8.1 9-5.64 19.77-6.06 30.49-.4 10.38 4.63 21.12 13.84 28.18z" fill="#a86e57"/><path data-name="Path 4276" d="M127.83 150s9.11 26.32 26.57 26.32 20-8.86 20-8.86l-.75-14.17z" transform="translate(-12.99 -3.13)" fill="url(#c)"/><path data-name="Path 4277" d="M177.71 115.36c-.44 7.76-1.26 15.57-3.79 22.91s-6.91 14.24-13.34 18.6c-9 6.11-21.14 6.52-31.14 2.29s-17.88-12.61-22.85-22.29a83.1 83.1 0 01-9.29-31c-.68-8.09.63-17 4.38-24.16 4-7.68 11.75-12.91 20-15.51s17.07-2.84 25.72-2.61c7 .19 14.29.74 20.56 3.94 7.21 3.67 11.51 10.35 10.31 18.32-1.42 9.59-.02 19.83-.56 29.51z" fill="#a86e57"/><path data-name="Path 4278" d="M108.62 111.52c-2.24-1.13-3.44-4.17-5.94-4.4a3.85 3.85 0 00-3.62 2.37 7.76 7.76 0 00-.34 4.53 16.31 16.31 0 005.19 9.33c1.14 1 2.49 2 3 3.39a7.3 7.3 0 01.1 3.26l-1 7.73c-3.92-1.26-6.75-4.83-8.23-8.67s-1.87-8-2.42-12.1c-.37-2.76-.83-5.52-1.18-8.29-.7-5.61-.91-11.28-1.12-16.94l-.2-5.86c-.27-7.19-.53-14.48 1.07-21.49a12.29 12.29 0 012.13-5.07 14.52 14.52 0 014.95-3.44l15.07-7.54a78.208 78.208 0 0112.75-5.46 76.841 76.841 0 0110.34-2c5.45-.83 11.08-1.64 16.43-.26 6.82 1.76 12.42 6.93 19.3 8.43 3.38.73 7 .55 10.2 1.73 6.85 2.47 10.33 10.26 11 17.51.46 4.59 0 9.61-3 13.13-2.57 3.06-6.61 4.51-9.4 7.37-3.11 3.19-4.47 7.9-8 10.59-4 3-9.75 2.58-14.36.58s-8.5-5.32-12.82-7.89c-2.12-1.27-4.57-2.4-7-1.89-3.49.73-5.44 4.47-8.53 6.25-2.76 1.59-6.17 1.48-9.29.85-3.72-.76-8.1-1.49-10.64 2-2.3 3.23-3.51 8.45-4.44 12.25z" fill="#606161"/><path data-name="Path 4279" d="M117.84 118.43c-.31-.61-.49-1.28-.85-1.86a1.87 1.87 0 00-1.68-1A1.67 1.67 0 00114 117a4.27 4.27 0 00.19 2 21.549 21.549 0 001.52 3.88 6.47 6.47 0 001.62 2.17 6.36 6.36 0 002.69 1.09 1.29 1.29 0 001.06-.09 1.24 1.24 0 00.36-.65c.34-1.18.77-3.63-.2-4.65-.45-.46-1.1-.38-1.66-.6a3.32 3.32 0 01-1.74-1.72z" transform="translate(-12.99 -3.13)" opacity=".5" fill="url(#d)"/><path data-name="Path 4280" d="M307.37 139.01c7.51-12.42 21.4-19.58 35.91-19.27 5 .1 10.05.38 15 .36 14.34-.07 35.92-5 48.25 2.36 5.11 3 9.38 16.67 11.91 22.06.51 1.08.92 2.45.18 3.38s-1.84.87-2.87.86c-25.4-.27-50.75.07-76.15-.2-5.74-.06-35.67-.13-35.67-.13.08-2.77 1.42-6.08 3.44-9.42z" fill="#fff"/><path data-name="Path 4281" d="M357.33 126.1a12.41 12.41 0 003.9 2 17.55 17.55 0 008.89 1.17c3-.54 5.83-2.57 6.61-5.49a12.8 12.8 0 00.07-4.62l-.6-5.51c-.29-2.71-.62-5.51-2-7.84a9.71 9.71 0 00-11.77-3.76 12.61 12.61 0 00-6.1 6.44c-2.88 6.11-5.07 12.63 1 17.61z" fill="#fce8ca"/><path data-name="Path 4282" d="M387.17 108.93s-5.82 16.7-14.17 16.7-6.2-8.1-6.2-8.1z" transform="translate(-12.99 -3.13)" fill="url(#e)"/><path data-name="Path 4283" d="M342.27 99.09c.71 2.89 2.1 5.57 3.06 8.39a16.12 16.12 0 001.53 3.77 9.53 9.53 0 004.91 3.54 17.68 17.68 0 0013-.41c5.61-2.45 9.6-7.76 11.71-13.51s5.77-11.51 5.93-17.63c.07-2.63-3.15-5.81-4.07-8.27-1-2.68-3-4.84-5.06-6.86a24.08 24.08 0 00-6-4.69c-5.51-2.72-12.31-1.17-17.52 2.08a16.09 16.09 0 00-4.55 4c-3 4.11-2.53 9.07-2.58 13.85-.04 5.35-1.7 10.32-.36 15.74z" fill="#fce8ca"/><path data-name="Path 4284" d="M335.24 71.12c-1.62-2.91-2.17-6.27-2.7-9.56a3.89 3.89 0 01.12-2.39c.55-1.09 1.94-1.43 2.79-2.32 1.79-1.88.38-4.93.48-7.53.12-3 2.52-5.55 5.28-6.76s5.86-1.35 8.87-1.47c4-.17 8.45-.14 11.25 2.68 1.53 1.54 2.32 3.72 4 5.09 3.48 2.87 8.74 1 13.13 2a10 10 0 017.42 8c.62 3.79-.9 8.12 1.31 11.27.7 1 1.74 1.78 2.16 2.93a5.85 5.85 0 01-.35 3.87 62.062 62.062 0 01-6.81 14.11 5.82 5.82 0 01-2.08 2.18c-.91.45-2.46 5.84-3 5-.79-1.09 0-8.19.85-9.25a13.238 13.238 0 002.4-3.22 3.63 3.63 0 00-6.43-3.26c1-6.11-2.29-13.31-8.33-14.59-3.57-.75-7.21.64-10.52 2.19-6.96 3.21-14.46 10.68-19.84 1.03z" fill="#e08142"/><path data-name="Path 4285" d="M389.28 86.72a1.07 1.07 0 01.6-.6 1.21 1.21 0 01.89.29 2.23 2.23 0 011.09 1.18 2.18 2.18 0 01-.12 1.18 8.369 8.369 0 01-.91 2.28 2.83 2.83 0 01-2 1.35c-.36 0-.94-.89-.93-1.22s.35-.54.52-.87c.58-1.1.25-2.43.86-3.59z" transform="translate(-12.99 -3.13)" fill="url(#f)"/><path data-name="Path 4286" d="M345.27 170.19c6-2.18 12.63-1.87 19-1 3.57.48 7.21 1.15 10.31 3 5.83 3.45 8.71 10.32 10.08 16.95s1.66 13.54 4.11 19.86c2.84 7.31 8.46 13.44 10.34 21a22.93 22.93 0 01-22.43 28.44c-4.87 0-9.63-1.61-14.5-1.59-10.08 0-19.71 6.89-29.58 4.86-8.1-1.67-13.88-9-17.18-16.54-2.05-4.7-3.43-10-1.84-14.91 2.18-6.67 9.24-10.58 12.39-16.86 4-7.88 1-17.22 4.41-25.19 3.09-7.34 6.8-15.09 14.89-18.02z"/><path data-name="Path 4287" d="M380.01 234.68c5.41 1.07 11.5.58 15.91 3.75a13.77 13.77 0 015.07 8.35 39.249 39.249 0 01.47 9.81l-.35 9.7a1.39 1.39 0 01-.29 1 1.57 1.57 0 01-1.11.29l-83.7.29a20 20 0 012.16-15.77c2.42-4 4.66-8 8.44-10.91 5.09-3.85 16.93-4.18 22.52-7.35 1.45-.82.14-2 1.77-2.41s.92-2.37 2.52-2.38c4.57 0 10.27-.59 14.7.62 4.19 1.2 7.42 4.12 11.89 5.01z" fill="#fff"/><path data-name="Path 4288" d="M347.33 237.51a16.731 16.731 0 00-.82 4.12 9.09 9.09 0 004.43 7.88 10.09 10.09 0 009.11.46 13.66 13.66 0 006.8-7.68 30.329 30.329 0 001.69-10.33 82.349 82.349 0 00-.82-14 2.89 2.89 0 00-3.08-3.28c-5.83-.48-11 1.95-13.4 7.58a25.779 25.779 0 00-1.15 5.24c-.69 3.37-1.82 6.68-2.76 10.01z" fill="#8d6363"/><path data-name="Path 4289" d="M362.37 233.54s-.5 4.3 1.44 5.9 9.61 5.32 13.32.09a27.23 27.23 0 004.39-11.39z" transform="translate(-12.99 -3.13)" fill="url(#g)"/><path data-name="Path 4290" d="M338.77 216.3c1 3.13 6.89 14.2 15.05 16.22 17.53 4.35 22.86-26.53 22-33-.62-4.71-4.51-11-8.07-14.11-4.23-3.73-10.75-4-15.94-1.81-13.8 5.88-17.44 19.27-13.04 32.7z" fill="#8d6363"/><path data-name="Path 4291" d="M333.09 199.08a3.6 3.6 0 002.73 2.69c1.45.21 2.79-.72 4.19-1.16 1.68-.51 3.54-.31 5.19-.93s3-2.69 2-4.1c-.48 2.15 2.34 3.57 4.53 3.35s4.44-1.18 6.49-.39l.83-4.27a4 4 0 002.58 4.21 8.33 8.33 0 005.25.08c.76-.19 1.71-.79 1.42-1.53 1.76 2.15 5.18 1.25 7.74.16a1.91 1.91 0 001-.75 1.88 1.88 0 000-1.36c-1.1-4.14-2.23-8.35-4.45-12s-5.71-6.8-9.93-7.54a20.36 20.36 0 00-7.33.39 26.86 26.86 0 00-16.36 9.19c-3.08 3.32-7.17 9.27-5.88 13.96z"/></g></svg>