<svg xmlns="http://www.w3.org/2000/svg" xmlns:xlink="http://www.w3.org/1999/xlink" width="373.769" height="314.912"><defs><linearGradient id="a" y1=".5" x2="1" y2=".5" gradientUnits="objectBoundingBox"><stop offset="0" stop-opacity="0"/><stop offset=".95"/></linearGradient><linearGradient id="b" x1=".574" y1=".421" x2="-.496" y2=".721" xlink:href="#a"/><linearGradient id="c" x1="-.178" y1=".549" x2="1.485" y2=".273" xlink:href="#a"/><linearGradient id="d" x1="1.052" y1=".363" x2=".689" y2=".43" xlink:href="#a"/><linearGradient id="e" x1="1.058" y1=".483" x2=".155" y2=".505" xlink:href="#a"/><linearGradient id="f" x1="1.064" y1=".356" x2="-1.279" y2=".954" xlink:href="#a"/></defs><g data-name="Mathematics - Prep" transform="translate(-.028 .019)"><path data-name="Path 3339" d="M230.04 301.2c21.32-10.87 38.32-29.38 60.53-38.28 15.66-6.28 33.3-7.5 47.88-16 21-12.21 31.34-37.17 34.35-61.25 2.06-16.49 1.25-33.74-5.5-48.93-13.42-30.2-46.39-45.78-69.95-69-16.62-16.35-29-37.07-47.72-51-26.6-19.69-64.84-22.29-93.84-6.42-21 11.48-36.27 30.91-53.45 47.6a256.29 256.29 0 01-42.38 33.25c-13.46 8.44-27.91 15.78-39.05 27.11A74.07 74.07 0 00.62 179.17c2 15.2 8.8 29.34 12.25 44.28 6.16 26.73 3.06 58.63 23.24 77.2 24.87 22.89 64.57 11 94.72 12.27 33.61 1.38 68.16 4.13 99.21-11.72z" fill="#fff" opacity=".24" style="isolation:isolate"/><path data-name="Path 3340" d="M50.04 298.32l-1.61 14.12h82.65l-1.87-13.32z" fill="#fff"/><path data-name="Path 3341" d="M50.04 298.32l-1.61 14.12h82.65l-1.87-13.32z" fill="url(#a)"/><path data-name="Path 3342" d="M113.79 143.74l33.74 79.55 86.67-34.67s4.95-4.33 4.95-.92v5.26s18.89-1.86 26-5.88 2.78 5.26.31 8.05-17.65 13.31-23.53 13-17.33 1.85-17.33 1.85-67.48 36.84-75.22 37.15-18.57-4-18.57-4l-19-96.19z" fill="#ac7466"/><circle data-name="Ellipse 159" cx="86.67" cy="86.67" r="86.67" transform="translate(182.15 43.76)" fill="#fff" opacity=".24" style="isolation:isolate"/><path data-name="Path 3343" d="M113.12 140.05s35 77.09 40.24 76.16 18.88-6.19 18.88-6.19 2.79 1.55 3.1 3.41 3.71 19.81 3.09 22-27.54 15.47-32.19 13.92-15.45-6.25-15.45-6.25l-15.17-49.52z" fill="#fff"/><path data-name="Path 3344" d="M135.33 142s35 77.09 40.24 76.16 18.88-6.19 18.88-6.19 2.79 1.55 3.1 3.41 3.71 19.81 3.09 22-27.54 15.47-32.19 13.92-15.45-6.25-15.45-6.25l-15.17-49.52z" transform="translate(-22.21 -1.95)" fill="url(#b)"/><path data-name="Path 3345" d="M137.59 203.21a63.51 63.51 0 01-7.41 9.28c0 20.27.24 40.5 0 60.73 0 2 0 4-.09 6-.06 5.67-.17 11.32-.35 17a5.81 5.81 0 01-.57 2.9 4.94 4.94 0 01-2.68 2c-4.31 1.69-9.13 1.27-13.74.88q-24-2.08-48.07-2.05c-4.13 0-8.24.07-12.38.16a2.5 2.5 0 01-1.78-.42 2.3 2.3 0 01-.53-1.34c-5.21-30.13 14-60.58 8.4-90.61-1.04-5.69-2.95-11.13-4.6-16.69-2.66-8.73-4.75-17.76-4.62-26.89a52 52 0 01.73-7.76 38.83 38.83 0 017.65-17.81c2.44-3.06 5.58-5.74 9.39-6.64 3-.73 6-.31 9.06.13 5.8.79 11.58 1.61 17.37 2.42 6 .84 14.07 3.63 19.79 5.48 4.5 10.77 9.3 21.59 16.38 30.89 2.46 3.25 5.19 6.29 7.41 9.69a22.31 22.31 0 014 11.35 21 21 0 01-3.36 11.3z" fill="#fff"/><path data-name="Path 3346" d="M152.34 281.17a14.57 14.57 0 01-.85 2.51c-10.82-.07-22.69-.53-30.7-7.81-2.7-2.46-4.81-5.61-7.83-7.7s-7.49-2.81-10.11-.26a11 11 0 00-2.24 3.85q-4.86 11.87-9.74 23.74c-1 2.29-1.94 4.64-3.79 6.27a.28.28 0 01-.15.11c-4.13 0-8.24.07-12.38.16a2.5 2.5 0 01-1.78-.42 2.3 2.3 0 01-.53-1.34c-5.21-30.13 14-60.58 8.4-90.61C79.56 204 77.65 198.56 76 193c-2.66-8.73-4.75-17.76-4.62-26.89a52 52 0 01.73-7.76c3.1-.64 6.68.51 9.67 1.91 9.54 4.44 18.38 11.06 23.68 20.17 3 5.14 4.77 10.9 6.62 16.57q4.32 13.17 9.37 26.08c5.45 13.88 11.78 27.84 22.4 38.28 3.81 3.74 7.57 8.49 8.62 13.77a14 14 0 01-.13 6.04z" transform="translate(-22.21 -1.95)" fill="url(#c)"/><path data-name="Path 3347" d="M107.79 46.59c3-3.09 7.45-4.21 11.72-4.38 6.24-.24 12.72 1.36 17.53 5.35a30.06 30.06 0 016.47 8.05 51.59 51.59 0 017.22 25.94 44.84 44.84 0 01-7.95 25.62c-4.48 6.34-8.38 13-15 17.07a36.56 36.56 0 01-22.28 5.24 4.88 4.88 0 01-1.65-.36 4.63 4.63 0 01-2-2.49 29.75 29.75 0 01-2-14.9 92.609 92.609 0 013.12-14.86c3.59-13.52 7-27.43 5.63-41.35-.35-3.27-1.12-5.66-.81-8.93z" fill="#606060"/><path data-name="Path 3348" d="M130 48.54c3-3.09 7.45-4.21 11.72-4.38 6.24-.24 12.72 1.36 17.53 5.35a30.06 30.06 0 016.47 8.05 51.59 51.59 0 017.22 25.94 44.84 44.84 0 01-7.95 25.62c-4.48 6.34-8.38 13-15 17.07a36.56 36.56 0 01-22.28 5.24 4.88 4.88 0 01-1.65-.36 4.63 4.63 0 01-2-2.49 29.75 29.75 0 01-2-14.9 92.609 92.609 0 013.12-14.86c3.59-13.52 7-27.43 5.63-41.35-.35-3.27-1.12-5.66-.81-8.93z" transform="translate(-22.21 -1.95)" fill="url(#d)"/><path data-name="Path 3349" d="M126.93 58.14c2.71 3.66 3.75 8.23 5.14 12.56s3.42 8.79 7.28 11.18c1 .6 2.1 1.14 2.52 2.2.73 1.89-1.3 3.63-1.9 5.56s.3 4.06.07 6.09c-.12 1.12-.59 2.19-.79 3.31-.22 1.3-.06 2.65-.33 3.94-.71 3.5-4.24 5.66-7.61 6.85s-7.07 2-9.69 4.38c-2.79 2.57-3.79 6.5-4.65 10.2l-5.25 22.5c-.55 2.34-1 5 .35 7 7.64 10.84 12.33 23.83 11.29 37-6.46-17.73-19.41-32.28-33-45.41-3-2.9-6.07-5.8-8.21-9.37-4.33-7.19-4.34-16.27-2.31-24.42 3.83-15.35 14.07-28.19 21-42.45 1.63-3.36 3.18-7 6.16-9.21 2.77-2.1 6.34-2.7 9.77-3.24 3.6-.55 8.02-1.61 10.16 1.33z" fill="#ac7466"/><path data-name="Path 3350" d="M114.91 114.67a73 73 0 01-3 9.72 41.31 41.31 0 01-31.74 24.66c-10 1.44-20.79-.82-30 3.45-1.31-14.75-2.26-30.95 6.42-42.95 2.84-3.94 6.64-7.26 8.6-11.7 3.52-8 .29-17.17.71-25.87.62-12.49 9.51-24 21.21-28.42 8-3.06 18.16-3.21 26.1.33 5.78 2.58 6.74 6.58 7.38 12.47 2.2 19.69-.8 39.21-5.68 58.31z" fill="#606060"/><path data-name="Path 3351" d="M137.12 116.62a73 73 0 01-3 9.72A41.31 41.31 0 01102.38 151c-10 1.44-20.79-.82-30 3.45-1.31-14.75-2.26-30.95 6.42-42.95 2.84-3.94 6.64-7.26 8.6-11.7 3.52-8 .29-17.17.71-25.87.62-12.49 9.51-24 21.21-28.42 8-3.06 18.16-3.21 26.1.33 5.78 2.58 6.74 6.58 7.38 12.47 2.2 19.69-.8 39.21-5.68 58.31z" transform="translate(-22.21 -1.95)" fill="url(#e)"/><path data-name="Path 3352" d="M208.28 238.22c6.41-1.76 12.83-3.53 19.07-5.81 12.35-4.51 23.88-11 35.35-17.39 2 2.12-1.56 6 .14 8.38a4 4 0 001.52 1.15c7.12 3.55 15.68 1.23 23.57 2.31.65 1.91-1.35 3.61-3.14 4.54-12.7 6.56-27.59 7.12-41.18 11.56-3.86 1.26-7.62 2.84-11.38 4.37q-21 8.52-42.67 15.14c-7.1 2.17-14.37 4.2-21.8 4.12a3.86 3.86 0 01-2.07-.44 4.07 4.07 0 01-1.33-2c-1.32-3.26-3.68-9.05-1.3-12.4 2.23-3.13 9.08-3.58 12.5-4.52z" fill="#ac7466"/><path data-name="Path 3353" d="M229.49 57.91v123.82l75.53 20.43V94.02l-10.12-10-14.14-13.92z" fill="#e0d4cd"/><path data-name="Path 3354" d="M289.75 98.56l-6.81-26.2 21.66 21.66z" fill="#fff"/><path data-name="Rectangle 848" fill="#fff" d="M242.01 104.581l.503-2.142 47.46 11.14-.503 2.142z"/><path data-name="Path 3355" d="M253.86 97.21l-11.31-2.63.5-2.14 11.32 2.63z" fill="#fff"/><path data-name="Path 3356" d="M259.02 98.34l-3.06-.67.5-2.14 3.06.67z" fill="#fff"/><path data-name="Path 3357" d="M264.49 99.63l-3.06-.67.5-2.14 3.06.67z" fill="#fff"/><path data-name="Rectangle 849" fill="#fff" d="M242.014 116.132l.503-2.142 47.46 11.14-.503 2.142z"/><path data-name="Rectangle 850" fill="#fff" d="M242.008 127.692l.503-2.142 47.46 11.14-.503 2.142z"/><path data-name="Rectangle 851" fill="#fff" d="M242.012 139.244l.503-2.142 47.46 11.14-.503 2.142z"/><path data-name="Path 3359" d="M281.55 175.11l-8.17-17.28-13.33 11.78-7.45-16.46-8.8 7.14-1.39-1.7 11.02-8.95 7.4 16.35 13.29-11.75 7.93 16.77 6.95-8.55 1.7 1.39z" fill="#6992e7"/><path data-name="Path 3360" d="M63.29 175.93s36.28 89.24 49.21 98.13c14.86 10.21 66.84-6.59 66.84-6.59s-4.44-20.53-7.74-21.36-41.87 1.69-41.87 1.69l-40.16-91.87s-20.78-13.74-27.78.5c0 0-3.46 10.62 1.5 19.5z" fill="#fff"/><path data-name="Path 3361" d="M151.94 249.75s-24.35-52.75-24.76-53.81 24.56 23.11 24.56 23.11z" transform="translate(-22.21 -1.95)" fill="url(#f)"/></g></svg>