<svg xmlns="http://www.w3.org/2000/svg" xmlns:xlink="http://www.w3.org/1999/xlink" width="506.07" height="342.8"><defs><linearGradient id="a" x1=".514" y1=".096" x2=".458" y2="1.728" gradientUnits="objectBoundingBox"><stop offset="0" stop-color="#010101" stop-opacity="0"/><stop offset=".95" stop-color="#010101"/></linearGradient><linearGradient id="c" x1="-.956" y1=".512" x2="9.115" y2=".428" xlink:href="#a"/><linearGradient id="d" x1="0" y1=".5" x2="1" y2=".5" xlink:href="#a"/><linearGradient id="e" x1=".522" y1="-.314" x2=".477" y2="1.339" xlink:href="#a"/><linearGradient id="f" x1=".505" y1=".816" x2=".517" y2="1.567" xlink:href="#a"/><linearGradient id="g" x1=".5" y1=".14" x2=".507" y2="8.369" xlink:href="#a"/><linearGradient id="h" x1=".484" y1="-.885" x2=".598" y2="6.768" xlink:href="#a"/><linearGradient id="b" x1=".501" y1=".368" x2=".51" y2="-1.156" gradientUnits="objectBoundingBox"><stop offset="0" stop-color="#fff" stop-opacity="0"/><stop offset=".95" stop-color="#fff"/></linearGradient><linearGradient id="i" x1=".552" y1="1.783" x2=".122" y2="-8.388" xlink:href="#a"/><linearGradient id="j" x1=".21" y1=".499" x2="2.244" y2=".504" xlink:href="#a"/><linearGradient id="k" x1=".14" y1=".499" x2="1.948" y2=".506" xlink:href="#a"/><linearGradient id="l" x1=".617" y1=".509" x2="-1.127" y2=".459" xlink:href="#a"/><linearGradient id="m" x1=".5" y1="-.088" x2=".5" y2="2.086" xlink:href="#a"/><linearGradient id="n" x1="0" y1=".5" x2="1" y2=".5" xlink:href="#b"/><linearGradient id="o" x1="0" y1=".5" x2="1" y2=".5" xlink:href="#b"/><linearGradient id="p" x1="-.081" y1="-2.752" x2="2.184" y2="9.902" xlink:href="#a"/><linearGradient id="q" x1="-.083" y1="-2.752" x2="2.182" y2="9.902" xlink:href="#a"/><linearGradient id="r" x1="-.083" y1="-2.754" x2="2.182" y2="9.9" xlink:href="#a"/></defs><g data-name="Web Development" transform="translate(.008)"><path data-name="Path 5726" d="M16.09 156.01c18.08-22 43.87-36.24 64.28-56.13 10.28-10 19.16-21.43 30-30.77 24.91-21.38 58.68-30.24 91.5-30.57s65.18 7.15 97 15.11c47.27 11.82 95.36 25.31 135.07 53.56 14.2 10.1 27.07 21.92 39.9 33.7 12.08 11.1 24.64 22.93 29.68 38.54 8.2 25.38-5.59 52-11 78.08-2.08 10.08-3 20.69-8.09 29.64-12 21.05-40.48 24.14-64.68 24.78l-255.45 6.73c-49.1 1.3-102.23 1.41-141.92-27.54-24.35-17.84-22.88-36.39-22-62.6.94-27.86-3.9-48.66 15.71-72.53z" fill="#fff" opacity=".24" style="isolation:isolate"/><rect data-name="Rectangle 1852" width="107.75" height="146.23" rx="24.67" transform="translate(374.48 170.79)" fill="#fff"/><rect data-name="Rectangle 1853" width="107.75" height="146.23" rx="24.67" transform="translate(374.48 170.79)" fill="url(#a)"/><path data-name="Rectangle 1854" transform="translate(410.4 170.79)" opacity=".28" fill="url(#c)" d="M0 0h17.96v112.02H0z"/><rect data-name="Rectangle 1855" width="92.36" height="35.06" rx="10.77" transform="translate(396.72 285.38)" fill="#fff"/><rect data-name="Rectangle 1856" width="84.11" height="27.1" rx="9.04" transform="translate(401.85 289.93)" fill="url(#d)"/><path data-name="Rectangle 1857" transform="translate(408.69 186.47)" fill="url(#e)" d="M0 0h57.01v61.57H0z"/><path data-name="Path 5727" d="M383.28 140.79l-34.59-2.36-28.88-83.95-117.59-17.74-42.47 43.15-12.92-14.65 45-52.7L337.79 32.3zm-31.34-6.6l24.44 1.66-41.71-99.45-141.06-19.1-40.88 47.9 7.2 8.15 40.7-41.36 122.52 18.48z" fill="#fff"/><path data-name="Path 5728" d="M387.25 182.49l-34.59-2.36-28.88-83.95-117.59-17.74-42.47 43.15-12.92-14.65 45-52.7L341.76 74zm-31.34-6.6l24.44 1.66-41.71-99.45L197.58 59l-40.88 47.9 7.2 8.15 40.7-41.36 122.52 18.48z" transform="translate(-3.97 -41.7)" fill="url(#d)"/><path data-name="Path 5729" d="M389.39 120.41l-37.55-94.77-155.9-23.2-56.55 65.46 12.18 14.4v27.78h-2.27V83.13l-12.91-15.25L195.04 0l158.43 23.58 38.03 95.99z" fill="#fff"/><path data-name="Path 5730" d="M389.69 138.66l-34.59-2.36-28.88-84-117.59-17.7-42.46 43.15-12.93-14.64 45-52.7 146 19.78zm-31.33-6.61l24.43 1.67-41.7-99.42-141.06-19.15-40.88 47.91 7.2 8.16 40.68-41.36L329.56 48.3z" fill="#fff"/><path data-name="Path 5731" d="M359 135.5l-4.53-2.65 14.13-24.12-24.48-6.49 14.46-20.45-23.72-5.93 12.55-19.42-22.29-7.31-6.45-15.03-21.86 12.98-13.14-17.9-20.5 13.34-11.21-17.07-15.27 12.93-13.99-17.99-20.69 17.68-18.41-.72 2.05 20.45-16.06-2.88-.67 16.99-5.25-.21 1.45-20.77 14.62.48-.09-17.73 20.51-.93 22.75-18.23 14.56 16.32 15.37-11.19 11.82 17.45 19.46-13.96 14.07 17.89 21.85-13.47L329 44.89l24.39 9.46-10.14 18.2 20.76 6.74-12.06 20.08 23.1 6.43z" fill="#fff"/><rect data-name="Rectangle 1858" width="333.72" height="207.98" rx="19.29" transform="translate(89.14 115.04)" fill="#fff"/><rect data-name="Rectangle 1859" width="328.37" height="207.22" rx="19.1" transform="translate(91.42 112.76)" fill="url(#f)"/><rect data-name="Rectangle 1860" width="317.67" height="182.75" rx="17.64" transform="translate(97.36 123.21)" fill="#e0d4cd"/><path data-name="Rectangle 1861" fill="#fff" opacity=".24" style="isolation:isolate" d="M118.54 149.38h87.18v49.59h-87.18z"/><path data-name="Path 5732" d="M432.38 325.58v7.35a9.85 9.85 0 01-9.87 9.87H84.96a9.85 9.85 0 01-9.87-9.87v-7.35a9.67 9.67 0 01.45-2.95 9.83 9.83 0 019.42-6.89h337.55a9.81 9.81 0 019.41 6.89 9.38 9.38 0 01.46 2.95z" fill="#fff"/><path data-name="Path 5733" d="M435.89 364.3a9.85 9.85 0 01-9.41 6.93H88.93a9.86 9.86 0 01-9.42-6.93 9.83 9.83 0 019.42-6.89h337.55a9.81 9.81 0 019.41 6.89z" transform="translate(-3.97 -41.7)" fill="url(#g)"/><path data-name="Path 5734" d="M204.85 315.47h98v4a9.8 9.8 0 01-9.8 9.8h-78.4a9.8 9.8 0 01-9.8-9.8v-4z" fill="url(#h)"/><path data-name="Rectangle 1862" fill="#fff" d="M38.67 173.98h16.4v165.27h-16.4z"/><rect data-name="Rectangle 1863" width="87.18" height="49.59" rx="5.48" transform="translate(113.69 138.12)" fill="#fff" stroke="#fff" stroke-miterlimit="10" stroke-width=".76"/><rect data-name="Rectangle 1864" width="87.18" height="49.59" rx="5.48" transform="translate(214.6 150.66)" fill="#fff" stroke="#fff" stroke-miterlimit="10" stroke-width=".76"/><path data-name="Rectangle 1865" fill="#fff" opacity=".24" style="isolation:isolate" d="M314.77 148.19h93.71v56.21h-93.71z"/><path data-name="Rectangle 1866" fill="#fff" opacity=".24" style="isolation:isolate" d="M115.62 215.37h288.55v15.17H115.62z"/><path data-name="Rectangle 1867" fill="#fff" opacity=".24" style="isolation:isolate" d="M115.62 245.36h288.55v15.17H115.62z"/><path data-name="Path 5735" d="M54.72 230.57l408.38 29.84v27.95l-408.78-25.8z" fill="#fff"/><path data-name="Path 5736" d="M54.72 230.57l408.38 29.84v27.95l-408.78-25.8z" fill="url(#b)"/><path data-name="Path 5737" d="M78.49 244.66l1 .07-.33 3.57c.59-.52 2.58-2.21 3.81-3.3l1.2.1-3.36 2.82 3 4.46-1.17-.1-2.51-3.79-1 .77-.21 2.74-.95-.08z" fill="#fff"/><path data-name="Path 5738" d="M92.03 249.6l-3.58-.3-.2 2.57 4 .31-.19.81-4.78-.36.56-7.27 4.73.36-.06.83-3.79-.3-.18 2.23 3.62.28z" fill="#fff"/><path data-name="Path 5739" d="M100.95 250.3l-3.62-.28-.2 2.57 4 .31-.19.81-4.81-.41.56-7.27 4.73.37-.06.82-3.79-.29-.17 2.22 3.61.28z" fill="#fff"/><path data-name="Path 5740" d="M105.57 246.75l2.76.22a2.1 2.1 0 012.21 2.3 2.14 2.14 0 01-2.6 2l-1.73-.13-.23 3-1-.07zm.71 3.54l1.68.13c1 .08 1.53-.36 1.59-1.21a1.311 1.311 0 00-1.36-1.44l-1.71-.13z" fill="#fff"/><path data-name="Path 5741" d="M123.48 251.75c-.15 2-1.41 3.69-3.7 3.52-2.14-.17-3.2-1.91-3-4s1.5-3.65 3.71-3.47c2 .15 3.16 1.79 2.99 3.95zm-5.72-.43c-.12 1.56.56 3 2.13 3.12s2.47-1.2 2.59-2.75-.54-2.95-2.14-3.07-2.46 1.15-2.58 2.68z" fill="#fff"/><path data-name="Path 5742" d="M128.83 248.55l-.34 4.37c-.13 1.72.78 2.26 1.7 2.33 1.09.09 1.9-.36 2-2l.34-4.37 1 .07-.33 4.33c-.19 2.36-1.54 2.93-3.09 2.81s-2.77-.95-2.6-3.18l.34-4.39z" fill="#fff"/><path data-name="Path 5743" d="M139.43 250.2l-2.34-.19.06-.82 5.66.44-.06.82-2.35-.18-.5 6.44-1-.07z" fill="#fff"/><path data-name="Path 5744" d="M279.59 260.21l-.34 4.37c-.13 1.71.77 2.25 1.7 2.33 1.09.08 1.9-.36 2-2l.34-4.37 1 .07-.34 4.32c-.18 2.36-1.54 2.94-3.08 2.82a2.617 2.617 0 01-2.6-3.18l.34-4.4z" fill="#fff"/><path data-name="Path 5745" d="M288.22 268.18l.56-7.26 1.28.1c.91 1.78 2.9 5.57 3.24 6.38 0-.93.09-2.08.18-3.26l.22-2.84.91.07-.56 7.27-1.2-.1c-.84-1.65-2.9-5.72-3.29-6.56 0 .83-.1 2.06-.21 3.38l-.22 2.94z" fill="#fff"/><path data-name="Path 5746" d="M299.2 261.72l2.59.2a3.31 3.31 0 013.15 3.83 3.42 3.42 0 01-3.74 3.44l-2.56-.2zm.46 6.53l1.53.12c1.71.13 2.61-1 2.74-2.68a2.47 2.47 0 00-2.31-2.95l-1.52-.12z" fill="#fff"/><path data-name="Path 5747" d="M313.63 266.74l-3.61-.28-.2 2.57 4 .3-.19.82-4.78-.37.56-7.27 4.73.36-.06.83-3.79-.29-.18 2.22 3.62.28z" fill="#fff"/><path data-name="Path 5748" d="M318.9 267.3l-.25 3.2-.95-.08.56-7.26 2.84.22c1.5.11 2.22 1 2.14 2.12a1.66 1.66 0 01-1.38 1.61c.59.2 1.06.69 1 1.94v.32a5 5 0 000 1.45l-.93-.07a4.72 4.72 0 010-1.58v-.15c.08-1-.18-1.5-1.48-1.6zm.06-.81l1.58.12c1.11.09 1.63-.3 1.69-1.11s-.41-1.25-1.39-1.33l-1.69-.13z" fill="#fff"/><path data-name="Path 5749" d="M335.61 269.78a2.77 2.77 0 01-3.06 1.93c-2.17-.17-3.14-1.91-3-4s1.38-3.68 3.59-3.51a2.67 2.67 0 012.69 2.42l-1-.08A1.85 1.85 0 00333 265c-1.61-.12-2.37 1.29-2.48 2.75s.39 3 2.07 3.11a1.88 1.88 0 002-1.19z" fill="#fff"/><path data-name="Path 5750" d="M346.12 268.96c-.16 2-1.41 3.7-3.7 3.52-2.14-.16-3.2-1.91-3-4s1.5-3.64 3.7-3.47 3.16 1.79 3 3.95zm-5.73-.43c-.12 1.57.57 3 2.13 3.13s2.47-1.21 2.59-2.76-.54-2.94-2.13-3.07-2.47 1.16-2.59 2.7z" fill="#fff"/><path data-name="Path 5751" d="M350.03 272.96l.56-7.26 1.27.09c.92 1.79 2.9 5.57 3.25 6.39 0-.94.1-2.09.19-3.27l.22-2.83.91.07-.56 7.26-1.21-.09c-.84-1.65-2.89-5.72-3.28-6.57 0 .83-.11 2.06-.21 3.38l-.22 2.9z" fill="#fff"/><path data-name="Path 5752" d="M361.03 271.78a1.66 1.66 0 001.74 1.48c1.13.09 1.62-.4 1.67-1.09s-.26-1.17-1.69-1.63c-1.68-.55-2.23-1.18-2.15-2.2s.95-1.9 2.56-1.78a2.344 2.344 0 012.4 2.15l-1-.07a1.42 1.42 0 00-1.53-1.34c-.89-.07-1.41.29-1.46 1s.33 1 1.58 1.39c2 .67 2.34 1.5 2.26 2.44-.09 1.17-1 2-2.8 1.88a2.45 2.45 0 01-2.6-2.33z" fill="#fff"/><path data-name="Path 5753" d="M371.35 268.13l-2.34-.18.06-.82 5.66.43-.06.83-2.35-.19-.5 6.45-1-.08z" fill="#fff"/><path data-name="Path 5754" d="M379.03 271.99l-.25 3.2-.95-.07.57-7.27 2.84.22c1.49.11 2.22 1 2.13 2.12a1.65 1.65 0 01-1.34 1.61c.58.2 1.06.69 1 1.95v.31a5 5 0 000 1.45l-.94-.07a4.79 4.79 0 010-1.58v-.14c.08-1-.18-1.51-1.49-1.61zm.06-.81l1.58.12c1.12.09 1.63-.29 1.69-1.11s-.41-1.25-1.39-1.32l-1.69-.13z" fill="#fff"/><path data-name="Path 5755" d="M388.69 268.64l-.34 4.38c-.14 1.71.77 2.25 1.7 2.32 1.08.09 1.89-.35 2-2l.34-4.38 1 .08-.36 4.26c-.18 2.36-1.54 2.94-3.09 2.82s-2.77-1-2.6-3.19l.34-4.39z" fill="#fff"/><path data-name="Path 5756" d="M403.23 275.01a2.77 2.77 0 01-3.06 1.93c-2.17-.17-3.14-1.91-3-4s1.39-3.67 3.59-3.5a2.66 2.66 0 012.69 2.42l-1-.08a1.82 1.82 0 00-1.82-1.53c-1.61-.13-2.37 1.28-2.48 2.74s.39 3 2.07 3.12a1.87 1.87 0 002-1.21z" fill="#fff"/><path data-name="Path 5757" d="M409.09 271.05l-2.34-.18.07-.83 5.66.44-.07.82-2.35-.18-.5 6.45-1-.08z" fill="#fff"/><path data-name="Path 5758" d="M417.13 270.84l-.56 7.27-1-.08.56-7.26z" fill="#fff"/><path data-name="Path 5759" d="M427.74 275.3c-.15 2-1.41 3.69-3.69 3.51s-3.21-1.9-3-4 1.51-3.65 3.71-3.48 3.15 1.78 2.98 3.97zm-5.72-.44c-.12 1.57.57 3 2.13 3.13s2.47-1.21 2.59-2.75-.54-2.95-2.14-3.08-2.46 1.14-2.57 2.68z" fill="#fff"/><path data-name="Path 5760" d="M431.62 279.3l.57-7.26 1.27.1c.91 1.78 2.9 5.57 3.25 6.38 0-.94.09-2.08.19-3.26l.21-2.84.92.07-.57 7.26-1.2-.09c-.84-1.65-2.9-5.72-3.28-6.56 0 .83-.11 2.06-.21 3.38l-.23 2.9z" fill="#fff"/><path data-name="Path 5761" d="M442.65 278.09a1.67 1.67 0 001.74 1.49c1.13.09 1.62-.41 1.67-1.1s-.27-1.17-1.69-1.62c-1.68-.56-2.23-1.19-2.15-2.21s.94-1.9 2.56-1.78a2.27 2.27 0 012.4 2.15l-1-.07a1.41 1.41 0 00-1.51-1.29c-.89-.07-1.41.28-1.46 1s.33 1 1.58 1.39c2 .66 2.34 1.49 2.26 2.43-.09 1.17-1 2-2.8 1.89a2.47 2.47 0 01-2.61-2.34z" fill="#fff"/><path data-name="Path 5762" d="M242.79 244.33l124 9.41-123.14 20.52-91.5-6.84z" fill="url(#i)"/><path data-name="Path 5763" d="M53.32 269.36l404.11-65.19 2.4 24.8-406.31 66.78z" fill="#fff"/><path data-name="Path 5764" d="M53.32 269.36l404.11-65.19 2.4 24.8-406.31 66.78z" fill="#ffe66c"/><path data-name="Rectangle 1868" fill="#fff" d="M457.35 173.98h16.4v165.27h-16.4z"/><path data-name="Rectangle 1869" transform="translate(38.67 173.98)" fill="url(#j)" d="M0 0h16.4v165.27H0z"/><path data-name="Rectangle 1870" transform="translate(457.35 173.98)" fill="url(#k)" d="M0 0h16.4v165.27H0z"/><path data-name="Path 5765" d="M485.82 335.75h-35.8l3.99-23.2 2.66-15.6 5.16-30 9.88-.1 6.16 30.1 3.19 15.6z" fill="#fff"/><path data-name="Path 5766" d="M485.82 335.75h-35.8l3.99-23.2 2.66-15.6 5.16-30 9.88-.1 6.16 30.1 3.19 15.6z" fill="url(#l)"/><rect data-name="Rectangle 1871" width="58.39" height="8" rx="4" transform="translate(438.23 334.54)" fill="#fff"/><rect data-name="Rectangle 1872" width="58.39" height="8" rx="4" transform="translate(438.23 334.54)" fill="url(#m)"/><path data-name="Path 5767" d="M481.06 312.55h-27.05l2.66-15.6h21.2z" fill="url(#n)"/><path data-name="Path 5768" d="M59.96 335.75h-35.8l3.99-23.2 2.66-15.6 5.16-30 9.88-.1 6.16 30.1 3.19 15.6z" fill="#fff"/><path data-name="Path 5769" d="M59.96 335.75h-35.8l3.99-23.2 2.66-15.6 5.16-30 9.88-.1 6.16 30.1 3.19 15.6z" fill="url(#l)"/><rect data-name="Rectangle 1873" width="58.39" height="8" rx="4" transform="translate(12.37 334.54)" fill="#fff"/><rect data-name="Rectangle 1874" width="58.39" height="8" rx="4" transform="translate(12.37 334.54)" fill="url(#m)"/><path data-name="Path 5770" d="M55.2 312.55H28.15l2.66-15.6h21.2z" fill="url(#o)"/><circle data-name="Ellipse 254" cx="9.9" cy="9.9" r="9.9" transform="translate(194.29 13.81)" fill="#fff"/><circle data-name="Ellipse 255" cx="11.65" cy="11.65" r="11.65" transform="translate(323.56 30.41)" fill="#fff"/><circle data-name="Ellipse 256" cx="9.9" cy="9.9" r="9.9" transform="translate(194.29 13.81)" fill="url(#d)"/><circle data-name="Ellipse 257" cx="9.9" cy="9.9" r="9.9" transform="translate(197.71 12.39)" fill="#fff"/><circle data-name="Ellipse 258" cx="9.9" cy="9.9" r="9.9" transform="translate(325.98 31.77)" fill="url(#d)"/><circle data-name="Ellipse 259" cx="9.9" cy="9.9" r="9.9" transform="translate(329.4 30.35)" fill="#fff"/><path data-name="Path 5771" d="M159.76 79.89l6.41-2.14-2.2-2.73-6.41 2.42z" fill="#fff"/><path data-name="Path 5772" d="M149.35 67.78l6.42-2.14-2.2-2.74-6.41 2.42z" fill="#fff"/><path data-name="Rectangle 1875" fill="#fff" d="M149.15 108.58h2.34v22.35h-2.34z"/><path data-name="Rectangle 1876" fill="#fff" d="M195.94 2.44h3.02v10.58h-3.02z"/><path data-name="Path 5773" d="M149.01 65.04l.34 2.74-10.3 2.01v-3.02z" fill="#fff"/><path data-name="Path 5774" d="M344.21 30.19l6.43-5.52 1.2.97-6.65 6.62z" fill="#fff"/><path data-name="Path 5775" d="M152.25 141.3a3 3 0 01-1 1.61 2.32 2.32 0 01-2 .5 3 3 0 01-1.87-1 3.19 3.19 0 01-.7-2.08 8.32 8.32 0 011-3.7 15.1 15.1 0 012.07-3l-.09.27c.15-4.37.38-8.74.65-13.11.15 4.38.26 8.75.29 13.12v.11l-.09.16c-.55 1-1.06 2.07-1.51 3.1a9.359 9.359 0 00-.87 3.1 2 2 0 001.37 2.1 2.36 2.36 0 002.75-1.18z" fill="#fff"/><circle data-name="Ellipse 260" cx="2.67" cy="2.67" r="2.67" transform="translate(149.69 139.58)" fill="#fff" opacity=".24" style="isolation:isolate"/><path data-name="Path 5776" d="M87.73 272.81l.94-.15.57 3.54c.45-.65 2-2.75 2.93-4.1l1.19-.19-2.61 3.54 3.91 3.64-1.15.18-3.33-3.1-.79 1 .43 2.71-.94.15z" fill="#fff"/><path data-name="Path 5777" d="M102.09 274.45l-3.58.57.4 2.55 3.93-.63v.84l-4.74.75-1.14-7.23 4.69-.75.13.81-3.76.6.36 2.21 3.58-.58z" fill="#fff"/><path data-name="Path 5778" d="M110.88 273.05l-3.57.57.4 2.54 3.93-.63v.84l-4.74.76-1.15-7.2 4.69-.75.13.82-3.76.6.35 2.2 3.58-.57z" fill="#fff"/><path data-name="Path 5779" d="M114.56 268.52l2.73-.43a2.12 2.12 0 012.69 1.72 2.16 2.16 0 01-2.08 2.53l-1.7.27.47 3-1 .15zm1.47 3.28l1.66-.26c1-.16 1.41-.72 1.27-1.55a1.3 1.3 0 00-1.66-1.09l-1.69.27z" fill="#fff"/><path data-name="Path 5780" d="M133.14 269.2c.32 2-.51 3.92-2.78 4.29-2.11.34-3.56-1.11-3.89-3.18s.61-3.9 2.8-4.24c2.02-.33 3.53.99 3.87 3.13zm-5.67.92c.25 1.55 1.25 2.79 2.8 2.54s2.12-1.75 1.88-3.28-1.21-2.74-2.8-2.49-2.12 1.7-1.88 3.23z" fill="#fff"/><path data-name="Path 5781" d="M137.59 264.84l.69 4.33c.28 1.7 1.28 2 2.2 1.87 1.08-.17 1.76-.79 1.5-2.46l-.7-4.33 1-.15.68 4.28c.38 2.34-.81 3.22-2.34 3.46s-2.92-.28-3.27-2.49l-.7-4.35z" fill="#fff"/><path data-name="Path 5782" d="M148.28 263.97l-2.32.37-.13-.82 5.61-.89.13.81-2.33.38 1 6.38-1 .15z" fill="#fff"/><path data-name="Path 5783" d="M211.03 253.11l.69 4.33c.27 1.7 1.27 2 2.19 1.87 1.08-.17 1.77-.79 1.5-2.46l-.69-4.33 1-.15.68 4.28c.38 2.34-.81 3.22-2.34 3.46s-2.92-.28-3.27-2.49l-.76-4.32z" fill="#fff"/><path data-name="Path 5784" d="M221.23 258.85l-1.15-7.2 1.26-.2c1.31 1.52 4.13 4.74 4.65 5.45-.22-.91-.39-2.05-.57-3.22l-.46-2.81.91-.14 1.15 7.2-1.19.19c-1.2-1.41-4.16-4.89-4.73-5.62.18.81.38 2 .58 3.34l.46 2.87z" fill="#fff"/><path data-name="Path 5785" d="M230.4 250.01l2.56-.41a3.3 3.3 0 014 3 3.42 3.42 0 01-2.84 4.22l-2.53.4zm2 6.23l1.51-.24c1.7-.27 2.3-1.61 2-3.24a2.47 2.47 0 00-2.93-2.33l-1.51.24z" fill="#fff"/><path data-name="Path 5786" d="M245.6 251.51l-3.57.57.4 2.55 3.93-.63v.84l-4.74.75-1.15-7.19 4.69-.75.13.81-3.76.6.36 2.21 3.57-.58z" fill="#fff"/><path data-name="Path 5787" d="M250.86 250.87l.51 3.17-.94.15-1.15-7.2 2.81-.45c1.48-.24 2.39.44 2.57 1.56a1.66 1.66 0 01-1 1.89c.62.06 1.2.43 1.39 1.67l.05.31a5 5 0 00.33 1.41l-.93.15a5 5 0 01-.37-1.53v-.15c-.17-1-.53-1.42-1.82-1.21zm-.13-.8l1.56-.25c1.11-.18 1.52-.67 1.39-1.48s-.69-1.12-1.66-1l-1.67.26z" fill="#fff"/><path data-name="Path 5788" d="M267.68 249.3a2.77 2.77 0 01-2.52 2.59c-2.16.34-3.5-1.12-3.83-3.16s.49-3.89 2.67-4.24a2.67 2.67 0 013.19 1.72l-1 .15a1.83 1.83 0 00-2.13-1.07c-1.59.25-2 1.8-1.77 3.25s1.07 2.81 2.74 2.55a1.88 1.88 0 001.65-1.64z" fill="#fff"/><path data-name="Path 5789" d="M277.71 246.09c.32 2-.51 3.92-2.77 4.29s-3.56-1.11-3.9-3.18.62-3.89 2.8-4.24c2.02-.33 3.53.99 3.87 3.13zm-5.67.92c.25 1.55 1.26 2.79 2.81 2.54s2.12-1.75 1.87-3.28-1.21-2.74-2.8-2.49-2.12 1.7-1.89 3.23z" fill="#fff"/><path data-name="Path 5790" d="M282.42 249.07l-1.15-7.19 1.26-.21c1.3 1.53 4.12 4.74 4.64 5.45-.22-.91-.39-2-.57-3.21l-.45-2.82.9-.14 1.15 7.2-1.17.15c-1.2-1.41-4.16-4.89-4.73-5.62.18.81.38 2 .59 3.33l.46 2.88z" fill="#fff"/><path data-name="Path 5791" d="M292.86 245.35a1.67 1.67 0 002 1c1.12-.18 1.48-.78 1.37-1.46s-.53-1.07-2-1.18c-1.76-.15-2.44-.63-2.6-1.64s.48-2.07 2.08-2.33a2.27 2.27 0 012.83 1.53l-1 .16a1.42 1.42 0 00-1.77-.91c-.88.14-1.3.61-1.19 1.29s.55.88 1.86 1c2.13.17 2.62.9 2.77 1.84.18 1.16-.53 2.2-2.29 2.48a2.46 2.46 0 01-3.07-1.66z" fill="#fff"/><path data-name="Path 5792" d="M302.03 239.39l-2.32.37-.13-.81 5.61-.9.13.81-2.33.38 1 6.38-1 .15z" fill="#fff"/><path data-name="Path 5793" d="M310.45 241.35l.51 3.16-.95.15-1.15-7.2 2.82-.45c1.48-.23 2.39.45 2.57 1.57a1.66 1.66 0 01-1 1.89c.62.06 1.19.42 1.39 1.66l.05.31a5.131 5.131 0 00.33 1.42l-.93.14a5 5 0 01-.37-1.53v-.14c-.17-1-.53-1.42-1.82-1.22zm-.13-.81l1.56-.25c1.11-.18 1.52-.67 1.39-1.47s-.69-1.12-1.66-1l-1.68.27z" fill="#fff"/><path data-name="Path 5794" d="M319.03 235.84l.69 4.33c.27 1.7 1.27 2 2.2 1.87s1.76-.79 1.5-2.46l-.7-4.33 1-.15.69 4.28c.37 2.34-.82 3.21-2.35 3.46s-2.91-.28-3.27-2.49l-.69-4.36z" fill="#fff"/><path data-name="Path 5795" d="M334.66 238.63a2.76 2.76 0 01-2.52 2.59c-2.16.35-3.5-1.11-3.83-3.15s.49-3.9 2.67-4.25a2.66 2.66 0 013.18 1.72l-.95.15a1.84 1.84 0 00-2.13-1.07c-1.59.26-2 1.81-1.77 3.25s1.07 2.82 2.74 2.55a1.88 1.88 0 001.65-1.63z" fill="#fff"/><path data-name="Path 5796" d="M339.43 233.41l-2.31.37-.14-.81 5.61-.9.13.82-2.33.37 1 6.38-1 .16z" fill="#fff"/><path data-name="Path 5797" d="M347.2 231.3l1.15 7.2-.95.15-1.16-7.2z" fill="#fff"/><path data-name="Path 5798" d="M358.56 233.17c.31 2-.51 3.92-2.78 4.28s-3.56-1.1-3.89-3.17.61-3.9 2.79-4.25 3.54 1 3.88 3.14zm-5.67.92c.25 1.55 1.25 2.79 2.8 2.54s2.12-1.75 1.88-3.28-1.22-2.74-2.8-2.49-2.13 1.7-1.88 3.23z" fill="#fff"/><path data-name="Path 5799" d="M363.26 236.15l-1.15-7.2 1.26-.2c1.3 1.52 4.12 4.74 4.65 5.45-.22-.91-.39-2-.58-3.22l-.45-2.81.9-.14 1.15 7.2-1.19.19c-1.2-1.41-4.15-4.89-4.72-5.62.19.81.38 2 .59 3.33l.46 2.88z" fill="#fff"/><path data-name="Path 5800" d="M373.7 232.42a1.67 1.67 0 002.05 1c1.11-.17 1.47-.77 1.36-1.45s-.53-1.08-2-1.19c-1.76-.14-2.45-.62-2.61-1.64s.48-2.07 2.08-2.32a2.26 2.26 0 012.84 1.53l-1 .15a1.4 1.4 0 00-1.76-.9c-.88.14-1.31.61-1.2 1.29s.55.88 1.87 1c2.13.16 2.61.9 2.76 1.83.19 1.16-.52 2.21-2.28 2.49a2.47 2.47 0 01-3.08-1.66z" fill="#fff"/><circle data-name="Ellipse 261" cx="3.21" cy="3.21" r="3.21" transform="translate(178.29 257.94)" fill="url(#p)"/><circle data-name="Ellipse 262" cx="3.21" cy="3.21" r="3.21" transform="translate(407.76 219.39)" fill="url(#q)"/><circle data-name="Ellipse 263" cx="3.21" cy="3.21" r="3.21" transform="translate(63.85 277.9)" fill="url(#r)"/></g></svg>